<?xml version="1.0" encoding="UTF-8"?>
<!DOCTYPE svg PUBLIC "-//W3C//DTD SVG 1.1//EN" "http://www.w3.org/Graphics/SVG/1.1/DTD/svg11.dtd">
<svg xmlns="http://www.w3.org/2000/svg" version="1.1" width="3508px" height="3508px" style="shape-rendering:geometricPrecision; text-rendering:geometricPrecision; image-rendering:optimizeQuality; fill-rule:evenodd; clip-rule:evenodd" xmlns:xlink="http://www.w3.org/1999/xlink">
<g><path style="opacity:0.997" fill="#f29634" d="M 2107.5,641.5 C 2030.17,677.5 1952.83,713.5 1875.5,749.5C 1837.26,697.751 1786.26,678.251 1722.5,691C 1675.26,703.238 1642.76,732.071 1625,777.5C 1613.96,811 1604.79,845 1597.5,879.5C 1494.83,927.167 1392.17,974.833 1289.5,1022.5C 1300.89,990.832 1311.39,958.832 1321,926.5C 1338.8,859.624 1356.14,792.624 1373,725.5C 1410.89,595.954 1492.39,506.121 1617.5,456C 1692.85,430.094 1769.52,425.428 1847.5,442C 1963.69,470.393 2050.36,536.893 2107.5,641.5 Z"/></g>
<g><path style="opacity:0.991" fill="#f29436" d="M 2107.5,641.5 C 2109.44,645.043 2111.1,648.71 2112.5,652.5C 2035.38,687.896 1958.38,723.562 1881.5,759.5C 1879,756.506 1877,753.173 1875.5,749.5C 1952.83,713.5 2030.17,677.5 2107.5,641.5 Z"/></g>
<g><path style="opacity:0.993" fill="#f1913b" d="M 2112.5,652.5 C 2117.63,662.431 2121.96,672.764 2125.5,683.5C 2047.92,718.956 1970.59,754.956 1893.5,791.5C 1889.69,780.749 1885.69,770.082 1881.5,759.5C 1958.38,723.562 2035.38,687.896 2112.5,652.5 Z"/></g>
<g><path style="opacity:0.992" fill="#f08c41" d="M 2125.5,683.5 C 2130.8,695.393 2135.13,707.727 2138.5,720.5C 2060.81,757.343 1982.81,793.677 1904.5,829.5C 1901.15,816.759 1897.48,804.093 1893.5,791.5C 1970.59,754.956 2047.92,718.956 2125.5,683.5 Z"/></g>
<g><path style="opacity:0.993" fill="#ee8647" d="M 2138.5,720.5 C 2143.59,735.175 2147.92,750.175 2151.5,765.5C 2072.83,801.833 1994.17,838.167 1915.5,874.5C 1911.37,859.636 1907.7,844.636 1904.5,829.5C 1982.81,793.677 2060.81,757.343 2138.5,720.5 Z"/></g>
<g><path style="opacity:0.993" fill="#ed834a" d="M 2151.5,765.5 C 2152.04,767.117 2152.37,768.784 2152.5,770.5C 2073.83,807.167 1995.17,843.833 1916.5,880.5C 1916.17,878.5 1915.83,876.5 1915.5,874.5C 1994.17,838.167 2072.83,801.833 2151.5,765.5 Z"/></g>
<g><path style="opacity:0.993" fill="#ec7f4d" d="M 2152.5,770.5 C 2156.68,787.538 2161.01,804.538 2165.5,821.5C 2086.83,857.833 2008.17,894.167 1929.5,930.5C 1925.17,913.833 1920.83,897.167 1916.5,880.5C 1995.17,843.833 2073.83,807.167 2152.5,770.5 Z"/></g>
<g><path style="opacity:0.993" fill="#ec7b51" d="M 2165.5,821.5 C 2166.33,825.136 2166.99,828.803 2167.5,832.5C 2089.02,868.91 2010.68,905.576 1932.5,942.5C 1931.19,938.584 1930.19,934.584 1929.5,930.5C 2008.17,894.167 2086.83,857.833 2165.5,821.5 Z"/></g>
<g><path style="opacity:0.993" fill="#ea7853" d="M 2167.5,832.5 C 2170.79,843.648 2173.79,854.981 2176.5,866.5C 2098.05,902.556 2019.72,938.89 1941.5,975.5C 1938.3,964.573 1935.3,953.573 1932.5,942.5C 2010.68,905.576 2089.02,868.91 2167.5,832.5 Z"/></g>
<g><path style="opacity:0.993" fill="#e97455" d="M 2176.5,866.5 C 2179.35,877.56 2182.35,888.56 2185.5,899.5C 2107.16,935.671 2029.16,972.338 1951.5,1009.5C 1947.57,998.447 1944.23,987.114 1941.5,975.5C 2019.72,938.89 2098.05,902.556 2176.5,866.5 Z"/></g>
<g><path style="opacity:0.997" fill="#f29436" d="M 1597.5,879.5 C 1596.01,884.44 1594.68,889.44 1593.5,894.5C 1489.92,941.955 1386.59,989.955 1283.5,1038.5C 1284.93,1032.87 1286.93,1027.54 1289.5,1022.5C 1392.17,974.833 1494.83,927.167 1597.5,879.5 Z"/></g>
<g><path style="opacity:0.997" fill="#f1913b" d="M 1593.5,894.5 C 1590.14,908.602 1586.47,922.602 1582.5,936.5C 1476.02,985.91 1369.68,1035.58 1263.5,1085.5C 1269.93,1069.65 1276.6,1053.98 1283.5,1038.5C 1386.59,989.955 1489.92,941.955 1593.5,894.5 Z"/></g>
<g><path style="opacity:0.994" fill="#e87157" d="M 2185.5,899.5 C 2186.04,903.314 2187.04,906.981 2188.5,910.5C 2110.25,947.027 2031.92,983.36 1953.5,1019.5C 1952.63,1016.21 1951.96,1012.88 1951.5,1009.5C 2029.16,972.338 2107.16,935.671 2185.5,899.5 Z"/></g>
<g><path style="opacity:0.994" fill="#e86d59" d="M 2188.5,910.5 C 2191.34,921.543 2194.34,932.543 2197.5,943.5C 2119.71,979.56 2042.05,1015.89 1964.5,1052.5C 1960.63,1041.56 1956.97,1030.56 1953.5,1019.5C 2031.92,983.36 2110.25,947.027 2188.5,910.5 Z"/></g>
<g><path style="opacity:0.997" fill="#f08c41" d="M 1582.5,936.5 C 1578.48,953.252 1574.15,969.919 1569.5,986.5C 1458.83,1037.83 1348.17,1089.17 1237.5,1140.5C 1246.47,1122.22 1255.14,1103.89 1263.5,1085.5C 1369.68,1035.58 1476.02,985.91 1582.5,936.5 Z"/></g>
<g><path style="opacity:0.994" fill="#e66b5a" d="M 2197.5,943.5 C 2198.36,945.421 2199.03,947.421 2199.5,949.5C 2121.71,985.229 2044.04,1021.23 1966.5,1057.5C 1965.46,1056.07 1964.8,1054.4 1964.5,1052.5C 2042.05,1015.89 2119.71,979.56 2197.5,943.5 Z"/></g>
<g><path style="opacity:0.994" fill="#e7675c" d="M 2199.5,949.5 C 2204.17,963.844 2208.84,978.178 2213.5,992.5C 2136.17,1028.5 2058.83,1064.5 1981.5,1100.5C 1975.53,1086.61 1970.53,1072.27 1966.5,1057.5C 2044.04,1021.23 2121.71,985.229 2199.5,949.5 Z"/></g>
<g><path style="opacity:0.997" fill="#ee8647" d="M 1569.5,986.5 C 1564.08,1006.1 1558.08,1025.43 1551.5,1044.5C 1435.08,1098.64 1318.75,1152.97 1202.5,1207.5C 1214.41,1185.35 1226.08,1163.02 1237.5,1140.5C 1348.17,1089.17 1458.83,1037.83 1569.5,986.5 Z"/></g>
<g><path style="opacity:0.994" fill="#e6645e" d="M 2213.5,992.5 C 2214.83,996.167 2216.17,999.833 2217.5,1003.5C 2139.92,1038.96 2062.59,1074.96 1985.5,1111.5C 1983.4,1108.2 1982.07,1104.54 1981.5,1100.5C 2058.83,1064.5 2136.17,1028.5 2213.5,992.5 Z"/></g>
<g><path style="opacity:0.994" fill="#e5605f" d="M 2217.5,1003.5 C 2227.05,1029.81 2237.38,1055.81 2248.5,1081.5C 2171.32,1117.26 2094.32,1153.26 2017.5,1189.5C 2005.77,1164.02 1995.1,1138.02 1985.5,1111.5C 2062.59,1074.96 2139.92,1038.96 2217.5,1003.5 Z"/></g>
<g><path style="opacity:0.997" fill="#ed834a" d="M 1551.5,1044.5 C 1551.04,1047.22 1550.37,1049.89 1549.5,1052.5C 1432.18,1106.83 1314.84,1161.16 1197.5,1215.5C 1198.68,1212.46 1200.35,1209.79 1202.5,1207.5C 1318.75,1152.97 1435.08,1098.64 1551.5,1044.5 Z"/></g>
<g><path style="opacity:0.997" fill="#ec7f4d" d="M 1549.5,1052.5 C 1541.93,1075.54 1533.6,1098.21 1524.5,1120.5C 1399.18,1178.49 1273.84,1236.49 1148.5,1294.5C 1165.58,1268.67 1181.92,1242.34 1197.5,1215.5C 1314.84,1161.16 1432.18,1106.83 1549.5,1052.5 Z"/></g>
<g><path style="opacity:0.994" fill="#e45a61" d="M 2248.5,1081.5 C 2257.5,1100.83 2266.5,1120.16 2275.5,1139.5C 2198.32,1175.26 2121.32,1211.26 2044.5,1247.5C 2034.74,1228.58 2025.74,1209.25 2017.5,1189.5C 2094.32,1153.26 2171.32,1117.26 2248.5,1081.5 Z"/></g>
<g><path style="opacity:0.997" fill="#ec7b50" d="M 1524.5,1120.5 C 1523.23,1125.31 1521.56,1129.98 1519.5,1134.5C 1391.95,1194.11 1264.28,1253.44 1136.5,1312.5C 1140.12,1306.22 1144.12,1300.22 1148.5,1294.5C 1273.84,1236.49 1399.18,1178.49 1524.5,1120.5 Z"/></g>
<g><path style="opacity:0.997" fill="#ea7853" d="M 1519.5,1134.5 C 1513.59,1150.57 1506.93,1166.24 1499.5,1181.5C 1364.17,1244.5 1228.84,1307.5 1093.5,1370.5C 1107.86,1351.14 1122.2,1331.81 1136.5,1312.5C 1264.28,1253.44 1391.95,1194.11 1519.5,1134.5 Z"/></g>
<g><path style="opacity:0.994" fill="#e35662" d="M 2275.5,1139.5 C 2280.72,1148.94 2285.72,1158.61 2290.5,1168.5C 2213.01,1203.78 2135.68,1239.44 2058.5,1275.5C 2053.33,1266.48 2048.66,1257.15 2044.5,1247.5C 2121.32,1211.26 2198.32,1175.26 2275.5,1139.5 Z"/></g>
<g><path style="opacity:0.994" fill="#e35364" d="M 2290.5,1168.5 C 2295.5,1177.83 2300.5,1187.17 2305.5,1196.5C 2227.89,1231.97 2150.56,1267.97 2073.5,1304.5C 2068.23,1294.96 2063.23,1285.3 2058.5,1275.5C 2135.68,1239.44 2213.01,1203.78 2290.5,1168.5 Z"/></g>
<g><path style="opacity:0.997" fill="#e97455" d="M 1499.5,1181.5 C 1493.22,1198.05 1485.89,1214.05 1477.5,1229.5C 1334.26,1296.36 1190.92,1363.03 1047.5,1429.5C 1062.83,1409.83 1078.17,1390.17 1093.5,1370.5C 1228.84,1307.5 1364.17,1244.5 1499.5,1181.5 Z"/></g>
<g><path style="opacity:0.994" fill="#e24d65" d="M 2305.5,1196.5 C 2315.91,1215 2326.58,1233.33 2337.5,1251.5C 2259.92,1287.46 2182.59,1323.8 2105.5,1360.5C 2094.34,1342.19 2083.68,1323.53 2073.5,1304.5C 2150.56,1267.97 2227.89,1231.97 2305.5,1196.5 Z"/></g>
<g><path style="opacity:0.996" fill="#e97157" d="M 1477.5,1229.5 C 1475.72,1235.06 1473.39,1240.39 1470.5,1245.5C 1323.82,1313.51 1177.16,1381.51 1030.5,1449.5C 1035.7,1442.42 1041.37,1435.75 1047.5,1429.5C 1190.92,1363.03 1334.26,1296.36 1477.5,1229.5 Z"/></g>
<g><path style="opacity:0.995" fill="#e86d59" d="M 1470.5,1245.5 C 1462.42,1261.99 1454.09,1278.32 1445.5,1294.5C 1286.17,1368.5 1126.83,1442.5 967.5,1516.5C 988.894,1494.44 1009.89,1472.11 1030.5,1449.5C 1177.16,1381.51 1323.82,1313.51 1470.5,1245.5 Z"/></g>
<g><path style="opacity:0.994" fill="#e14767" d="M 2337.5,1251.5 C 2346.16,1265.16 2354.83,1278.83 2363.5,1292.5C 2285.65,1328.59 2207.98,1364.93 2130.5,1401.5C 2121.42,1388.34 2113.08,1374.67 2105.5,1360.5C 2182.59,1323.8 2259.92,1287.46 2337.5,1251.5 Z"/></g>
<g><path style="opacity:0.994" fill="#e04467" d="M 2363.5,1292.5 C 2365.52,1294.53 2367.19,1296.86 2368.5,1299.5C 2290.22,1335.31 2212.22,1371.64 2134.5,1408.5C 2133.17,1406.17 2131.83,1403.83 2130.5,1401.5C 2207.98,1364.93 2285.65,1328.59 2363.5,1292.5 Z"/></g>
<g><path style="opacity:0.996" fill="#e76b5a" d="M 1445.5,1294.5 C 1444.07,1297.7 1442.4,1300.7 1440.5,1303.5C 1278.72,1378.22 1117.06,1453.22 955.5,1528.5C 959.167,1524.17 963.167,1520.17 967.5,1516.5C 1126.83,1442.5 1286.17,1368.5 1445.5,1294.5 Z"/></g>
<g><path style="opacity:0.994" fill="#e04168" d="M 2368.5,1299.5 C 2374.86,1307.87 2380.86,1316.53 2386.5,1325.5C 2308.5,1362.17 2230.5,1398.83 2152.5,1435.5C 2146.53,1426.52 2140.53,1417.52 2134.5,1408.5C 2212.22,1371.64 2290.22,1335.31 2368.5,1299.5 Z"/></g>
<g><path style="opacity:0.994" fill="#e7675c" d="M 1440.5,1303.5 C 1428.5,1326.85 1415.5,1349.52 1401.5,1371.5C 1222.17,1454.83 1042.83,1538.17 863.5,1621.5C 892.803,1589.2 923.469,1558.2 955.5,1528.5C 1117.06,1453.22 1278.72,1378.22 1440.5,1303.5 Z"/></g>
<g><path style="opacity:0.994" fill="#df3c69" d="M 2386.5,1325.5 C 2394.73,1336.28 2402.73,1347.28 2410.5,1358.5C 2332.35,1395.41 2254.02,1432.07 2175.5,1468.5C 2167.48,1457.8 2159.81,1446.8 2152.5,1435.5C 2230.5,1398.83 2308.5,1362.17 2386.5,1325.5 Z"/></g>
<g><path style="opacity:0.993" fill="#df366a" d="M 2410.5,1358.5 C 2412.55,1360.55 2414.21,1362.88 2415.5,1365.5C 2357.93,1391.76 2299.93,1418.6 2241.5,1446C 2237.75,1448.29 2233.91,1450.46 2230,1452.5C 2229.67,1452.17 2229.33,1451.83 2229,1451.5C 2224.33,1454.17 2219.67,1456.83 2215,1459.5C 2214.67,1459.17 2214.33,1458.83 2214,1458.5C 2209.33,1461.17 2204.67,1463.83 2200,1466.5C 2199.67,1466.17 2199.33,1465.83 2199,1465.5C 2192.94,1469.28 2186.77,1472.61 2180.5,1475.5C 2178.48,1473.47 2176.81,1471.14 2175.5,1468.5C 2254.02,1432.07 2332.35,1395.41 2410.5,1358.5 Z"/></g>
<g><path style="opacity:0.994" fill="#de346b" d="M 2415.5,1365.5 C 2419.59,1369.26 2422.93,1373.59 2425.5,1378.5C 2346.74,1414.97 2268.08,1451.64 2189.5,1488.5C 2186.14,1484.47 2183.14,1480.13 2180.5,1475.5C 2186.77,1472.61 2192.94,1469.28 2199,1465.5C 2199.33,1465.83 2199.67,1466.17 2200,1466.5C 2204.67,1463.83 2209.33,1461.17 2214,1458.5C 2214.33,1458.83 2214.67,1459.17 2215,1459.5C 2219.67,1456.83 2224.33,1454.17 2229,1451.5C 2229.33,1451.83 2229.67,1452.17 2230,1452.5C 2233.91,1450.46 2237.75,1448.29 2241.5,1446C 2299.93,1418.6 2357.93,1391.76 2415.5,1365.5 Z"/></g>
<g><path style="opacity:0.994" fill="#e6645d" d="M 1401.5,1371.5 C 1398.43,1377.3 1395.1,1382.97 1391.5,1388.5C 1210.17,1472.83 1028.83,1557.17 847.5,1641.5C 852.484,1634.52 857.817,1627.85 863.5,1621.5C 1042.83,1538.17 1222.17,1454.83 1401.5,1371.5 Z"/></g>
<g><path style="opacity:0.994" fill="#dd2e6b" d="M 2425.5,1378.5 C 2432.65,1386.8 2439.32,1395.46 2445.5,1404.5C 2366.5,1441.17 2287.5,1477.83 2208.5,1514.5C 2202.17,1505.83 2195.83,1497.17 2189.5,1488.5C 2268.08,1451.64 2346.74,1414.97 2425.5,1378.5 Z"/></g>
<g><path style="opacity:0.994" fill="#e5605f" d="M 1391.5,1388.5 C 1362.04,1435.77 1330.37,1481.44 1296.5,1525.5C 1128.83,1603.5 961.167,1681.5 793.5,1759.5C 801.722,1715.42 819.722,1676.09 847.5,1641.5C 1028.83,1557.17 1210.17,1472.83 1391.5,1388.5 Z"/></g>
<g><path style="opacity:0.993" fill="#dd276c" d="M 2445.5,1404.5 C 2452.85,1412.52 2459.85,1420.85 2466.5,1429.5C 2387.41,1466.87 2308.08,1503.87 2228.5,1540.5C 2221.83,1531.83 2215.17,1523.17 2208.5,1514.5C 2287.5,1477.83 2366.5,1441.17 2445.5,1404.5 Z"/></g>
<g><path style="opacity:0.996" fill="#dc206d" d="M 2466.5,1429.5 C 2484.85,1450.8 2503.68,1471.8 2523,1492.5C 2559.03,1528.86 2595.36,1564.86 2632,1600.5C 2649.14,1619.3 2665.14,1638.96 2680,1659.5C 2700.91,1692.35 2714.91,1728.01 2722,1766.5C 2736.25,1830.54 2730.91,1892.87 2706,1953.5C 2693.98,1986.89 2677.31,2017.55 2656,2045.5C 2619.46,2083.06 2578.63,2114.9 2533.5,2141C 2468.47,2170.39 2400.47,2181.39 2329.5,2174C 2231.18,2164.81 2143.85,2129.47 2067.5,2068C 2048.58,2050.25 2031.41,2031.08 2016,2010.5C 1992.25,1974 1968.25,1937.66 1944,1901.5C 1914.87,1870.01 1880.7,1845.51 1841.5,1828C 1757.9,1798.77 1680.9,1810.77 1610.5,1864C 1596.82,1874.45 1583.99,1885.95 1572,1898.5C 1563.28,1910.22 1554.94,1922.22 1547,1934.5C 1526.14,1970.24 1502.8,2004.24 1477,2036.5C 1447.55,2069.96 1413.05,2096.79 1373.5,2117C 1293.07,2159.19 1207.4,2178.86 1116.5,2176C 1065.34,2171.61 1016.68,2158.28 970.5,2136C 967.593,2134.39 964.927,2132.56 962.5,2130.5C 1316.14,1966.34 1669.48,1801.68 2022.5,1636.5C 2061.56,1661.17 2097.06,1690.5 2129,1724.5C 2140.05,1737.88 2150.72,1751.55 2161,1765.5C 2180.75,1796 2200.75,1826.34 2221,1856.5C 2244.61,1884.73 2274.44,1903.23 2310.5,1912C 2335.77,1918.99 2361.43,1921.66 2387.5,1920C 2417.47,1915 2441.64,1900.5 2460,1876.5C 2467.81,1863.72 2472.64,1849.88 2474.5,1835C 2473.68,1821.57 2469.85,1809.07 2463,1797.5C 2456.38,1788.54 2449.38,1779.88 2442,1771.5C 2380.17,1713.34 2321.5,1652.34 2266,1588.5C 2253.29,1572.62 2240.79,1556.62 2228.5,1540.5C 2308.08,1503.87 2387.41,1466.87 2466.5,1429.5 Z"/></g>
<g><path style="opacity:0.994" fill="#e45a61" d="M 1296.5,1525.5 C 1266.97,1565.53 1235.3,1603.86 1201.5,1640.5C 1062.17,1705.17 922.833,1769.83 783.5,1834.5C 784.294,1809.14 787.628,1784.14 793.5,1759.5C 961.167,1681.5 1128.83,1603.5 1296.5,1525.5 Z"/></g>
<g><path style="opacity:0.995" fill="#e14667" d="M 1791.5,1558.5 C 1646.93,1626.95 1501.93,1694.62 1356.5,1761.5C 1366.95,1745.53 1378.79,1730.53 1392,1716.5C 1411.21,1697.11 1431.71,1679.44 1453.5,1663.5C 1523.14,1631.68 1592.48,1599.34 1661.5,1566.5C 1704.48,1557.64 1747.81,1554.98 1791.5,1558.5 Z"/></g>
<g><path style="opacity:0.998" fill="#e04467" d="M 1791.5,1558.5 C 1797.18,1558.63 1802.85,1558.97 1808.5,1559.5C 1655.26,1631.95 1501.6,1703.62 1347.5,1774.5C 1349.76,1769.64 1352.76,1765.3 1356.5,1761.5C 1501.93,1694.62 1646.93,1626.95 1791.5,1558.5 Z"/></g>
<g><path style="opacity:0.998" fill="#e04168" d="M 1808.5,1559.5 C 1827.47,1561.77 1846.14,1565.1 1864.5,1569.5C 1681.17,1654.83 1497.83,1740.17 1314.5,1825.5C 1324.33,1807.69 1335.33,1790.69 1347.5,1774.5C 1501.6,1703.62 1655.26,1631.95 1808.5,1559.5 Z"/></g>
<g><path style="opacity:0.967" fill="#e24a66" d="M 1661.5,1566.5 C 1592.48,1599.34 1523.14,1631.68 1453.5,1663.5C 1514.47,1614.03 1583.8,1581.69 1661.5,1566.5 Z"/></g>
<g><path style="opacity:0.995" fill="#df3b69" d="M 1864.5,1569.5 C 1884.78,1573.37 1904.45,1579.04 1923.5,1586.5C 1577.01,1747.58 1230.68,1908.91 884.5,2070.5C 873.5,2061.5 863.5,2051.5 854.5,2040.5C 941.38,1999.56 1028.38,1958.89 1115.5,1918.5C 1159.86,1922.83 1202.52,1916 1243.5,1898C 1258.16,1891.76 1270.99,1882.93 1282,1871.5C 1293.47,1856.54 1304.31,1841.21 1314.5,1825.5C 1497.83,1740.17 1681.17,1654.83 1864.5,1569.5 Z"/></g>
<g><path style="opacity:0.997" fill="#df366a" d="M 1923.5,1586.5 C 1926.82,1587.49 1930.16,1588.49 1933.5,1589.5C 1908.6,1601.19 1883.77,1613.19 1859,1625.5C 1858.67,1625.17 1858.33,1624.83 1858,1624.5C 1853.33,1627.17 1848.67,1629.83 1844,1632.5C 1843.67,1632.17 1843.33,1631.83 1843,1631.5C 1838.33,1634.17 1833.67,1636.83 1829,1639.5C 1828.67,1639.17 1828.33,1638.83 1828,1638.5C 1779,1661.83 1730,1685.17 1681,1708.5C 1680.67,1708.17 1680.33,1707.83 1680,1707.5C 1675.33,1710.17 1670.67,1712.83 1666,1715.5C 1665.67,1715.17 1665.33,1714.83 1665,1714.5C 1660.33,1717.17 1655.67,1719.83 1651,1722.5C 1650.67,1722.17 1650.33,1721.83 1650,1721.5C 1645.33,1724.17 1640.67,1726.83 1636,1729.5C 1635.67,1729.17 1635.33,1728.83 1635,1728.5C 1631.09,1730.54 1627.25,1732.71 1623.5,1735C 1582.17,1754 1540.83,1773 1499.5,1792C 1495.75,1794.29 1491.91,1796.46 1488,1798.5C 1487.67,1798.17 1487.33,1797.83 1487,1797.5C 1482.33,1800.17 1477.67,1802.83 1473,1805.5C 1472.67,1805.17 1472.33,1804.83 1472,1804.5C 1467.33,1807.17 1462.67,1809.83 1458,1812.5C 1457.67,1812.17 1457.33,1811.83 1457,1811.5C 1408,1834.83 1359,1858.17 1310,1881.5C 1309.67,1881.17 1309.33,1880.83 1309,1880.5C 1304.33,1883.17 1299.67,1885.83 1295,1888.5C 1294.67,1888.17 1294.33,1887.83 1294,1887.5C 1289.33,1890.17 1284.67,1892.83 1280,1895.5C 1279.67,1895.17 1279.33,1894.83 1279,1894.5C 1274.33,1897.17 1269.67,1899.83 1265,1902.5C 1264.67,1902.17 1264.33,1901.83 1264,1901.5C 1214.99,1924.83 1165.99,1948.17 1117,1971.5C 1116.67,1971.17 1116.33,1970.83 1116,1970.5C 1111.33,1973.17 1106.67,1975.83 1102,1978.5C 1101.67,1978.17 1101.33,1977.83 1101,1977.5C 1096.33,1980.17 1091.67,1982.83 1087,1985.5C 1086.67,1985.17 1086.33,1984.83 1086,1984.5C 1031.85,2009.91 977.848,2035.58 924,2061.5C 923.667,2061.17 923.333,2060.83 923,2060.5C 918.333,2063.17 913.667,2065.83 909,2068.5C 908.667,2068.17 908.333,2067.83 908,2067.5C 902.318,2071.07 896.818,2074.07 891.5,2076.5C 888.573,2075.24 886.239,2073.24 884.5,2070.5C 1230.68,1908.91 1577.01,1747.58 1923.5,1586.5 Z"/></g>
<g><path style="opacity:0.997" fill="#de346b" d="M 1933.5,1589.5 C 1940.41,1592.13 1947.07,1595.13 1953.5,1598.5C 1603.51,1761.5 1253.51,1924.5 903.5,2087.5C 899.079,2084.29 895.079,2080.62 891.5,2076.5C 896.818,2074.07 902.318,2071.07 908,2067.5C 908.333,2067.83 908.667,2068.17 909,2068.5C 913.667,2065.83 918.333,2063.17 923,2060.5C 923.333,2060.83 923.667,2061.17 924,2061.5C 977.848,2035.58 1031.85,2009.91 1086,1984.5C 1086.33,1984.83 1086.67,1985.17 1087,1985.5C 1091.67,1982.83 1096.33,1980.17 1101,1977.5C 1101.33,1977.83 1101.67,1978.17 1102,1978.5C 1106.67,1975.83 1111.33,1973.17 1116,1970.5C 1116.33,1970.83 1116.67,1971.17 1117,1971.5C 1165.99,1948.17 1214.99,1924.83 1264,1901.5C 1264.33,1901.83 1264.67,1902.17 1265,1902.5C 1269.67,1899.83 1274.33,1897.17 1279,1894.5C 1279.33,1894.83 1279.67,1895.17 1280,1895.5C 1284.67,1892.83 1289.33,1890.17 1294,1887.5C 1294.33,1887.83 1294.67,1888.17 1295,1888.5C 1299.67,1885.83 1304.33,1883.17 1309,1880.5C 1309.33,1880.83 1309.67,1881.17 1310,1881.5C 1359,1858.17 1408,1834.83 1457,1811.5C 1457.33,1811.83 1457.67,1812.17 1458,1812.5C 1462.67,1809.83 1467.33,1807.17 1472,1804.5C 1472.33,1804.83 1472.67,1805.17 1473,1805.5C 1477.67,1802.83 1482.33,1800.17 1487,1797.5C 1487.33,1797.83 1487.67,1798.17 1488,1798.5C 1491.91,1796.46 1495.75,1794.29 1499.5,1792C 1540.83,1773 1582.17,1754 1623.5,1735C 1627.25,1732.71 1631.09,1730.54 1635,1728.5C 1635.33,1728.83 1635.67,1729.17 1636,1729.5C 1640.67,1726.83 1645.33,1724.17 1650,1721.5C 1650.33,1721.83 1650.67,1722.17 1651,1722.5C 1655.67,1719.83 1660.33,1717.17 1665,1714.5C 1665.33,1714.83 1665.67,1715.17 1666,1715.5C 1670.67,1712.83 1675.33,1710.17 1680,1707.5C 1680.33,1707.83 1680.67,1708.17 1681,1708.5C 1730,1685.17 1779,1661.83 1828,1638.5C 1828.33,1638.83 1828.67,1639.17 1829,1639.5C 1833.67,1636.83 1838.33,1634.17 1843,1631.5C 1843.33,1631.83 1843.67,1632.17 1844,1632.5C 1848.67,1629.83 1853.33,1627.17 1858,1624.5C 1858.33,1624.83 1858.67,1625.17 1859,1625.5C 1883.77,1613.19 1908.6,1601.19 1933.5,1589.5 Z"/></g>
<g><path style="opacity:0.997" fill="#dd2e6b" d="M 1953.5,1598.5 C 1966.1,1603.46 1978.1,1609.46 1989.5,1616.5C 1637.05,1780.89 1284.71,1945.56 932.5,2110.5C 922.521,2103.18 912.854,2095.52 903.5,2087.5C 1253.51,1924.5 1603.51,1761.5 1953.5,1598.5 Z"/></g>
<g><path style="opacity:0.997" fill="#dd276c" d="M 1989.5,1616.5 C 2001.01,1622.42 2012.01,1629.08 2022.5,1636.5C 1669.48,1801.68 1316.14,1966.34 962.5,2130.5C 951.841,2124.84 941.841,2118.17 932.5,2110.5C 1284.71,1945.56 1637.05,1780.89 1989.5,1616.5 Z"/></g>
<g><path style="opacity:0.993" fill="#e35662" d="M 1201.5,1640.5 C 1181.56,1663.11 1160.56,1684.77 1138.5,1705.5C 1020.72,1759.89 903.053,1814.56 785.5,1869.5C 784.8,1857.84 784.133,1846.17 783.5,1834.5C 922.833,1769.83 1062.17,1705.17 1201.5,1640.5 Z"/></g>
<g><path style="opacity:0.992" fill="#e35364" d="M 1138.5,1705.5 C 1116.47,1728.53 1093.8,1750.86 1070.5,1772.5C 977.38,1815.23 884.38,1858.23 791.5,1901.5C 788.655,1891.11 786.655,1880.45 785.5,1869.5C 903.053,1814.56 1020.72,1759.89 1138.5,1705.5 Z"/></g>
<g><path style="opacity:0.992" fill="#e24e65" d="M 1070.5,1772.5 C 1062.95,1780.59 1056.12,1789.26 1050,1798.5C 1039.14,1816.61 1036.97,1835.61 1043.5,1855.5C 965.922,1890.96 888.588,1926.96 811.5,1963.5C 803.031,1943.43 796.365,1922.76 791.5,1901.5C 884.38,1858.23 977.38,1815.23 1070.5,1772.5 Z"/></g>
<g><path style="opacity:0.992" fill="#e14767" d="M 1043.5,1855.5 C 1048.9,1871.64 1058.23,1884.97 1071.5,1895.5C 991.709,1932.23 912.042,1969.23 832.5,2006.5C 824.733,1992.63 817.733,1978.3 811.5,1963.5C 888.588,1926.96 965.922,1890.96 1043.5,1855.5 Z"/></g>
<g><path style="opacity:0.992" fill="#e04467" d="M 1071.5,1895.5 C 1074.11,1896.44 1076.11,1898.11 1077.5,1900.5C 997.352,1938.41 917.018,1976.07 836.5,2013.5C 834.412,2011.66 833.079,2009.33 832.5,2006.5C 912.042,1969.23 991.709,1932.23 1071.5,1895.5 Z"/></g>
<g><path style="opacity:0.992" fill="#e04168" d="M 1077.5,1900.5 C 1088.89,1909.2 1101.56,1915.2 1115.5,1918.5C 1028.38,1958.89 941.38,1999.56 854.5,2040.5C 847.263,2032.37 841.263,2023.37 836.5,2013.5C 917.018,1976.07 997.352,1938.41 1077.5,1900.5 Z"/></g>
<g><path style="opacity:0.99" fill="#e1557f" d="M 505.5,2522.5 C 479.167,2522.5 452.833,2522.5 426.5,2522.5C 421.852,2506.91 417.352,2491.25 413,2475.5C 407.731,2490.9 403.231,2506.57 399.5,2522.5C 372.833,2522.5 346.167,2522.5 319.5,2522.5C 337.005,2459.48 354.671,2396.48 372.5,2333.5C 399.492,2332.5 426.492,2332.17 453.5,2332.5C 470.628,2395.88 487.961,2459.22 505.5,2522.5 Z"/></g>
<g><path style="opacity:0.989" fill="#e1567f" d="M 637.5,2522.5 C 611.167,2522.5 584.833,2522.5 558.5,2522.5C 558.5,2459.17 558.5,2395.83 558.5,2332.5C 584.833,2332.5 611.167,2332.5 637.5,2332.5C 637.5,2395.83 637.5,2459.17 637.5,2522.5 Z"/></g>
<g><path style="opacity:0.993" fill="#e1557f" d="M 1006.5,2522.5 C 919.5,2522.5 832.5,2522.5 745.5,2522.5C 745.333,2487.83 745.5,2453.17 746,2418.5C 753.669,2378.83 776.502,2351.99 814.5,2338C 822.313,2335.44 830.313,2333.77 838.5,2333C 894.499,2332.5 950.499,2332.33 1006.5,2332.5C 1006.5,2357.83 1006.5,2383.17 1006.5,2408.5C 951.795,2408.02 897.129,2408.52 842.5,2410C 834.948,2412.02 829.448,2416.52 826,2423.5C 824.567,2434.76 824.067,2446.09 824.5,2457.5C 885.167,2457.5 945.833,2457.5 1006.5,2457.5C 1006.5,2479.17 1006.5,2500.83 1006.5,2522.5 Z"/></g>
<g><path style="opacity:0.989" fill="#e1567f" d="M 1100.5,2522.5 C 1074.17,2522.5 1047.83,2522.5 1021.5,2522.5C 1021.5,2459.17 1021.5,2395.83 1021.5,2332.5C 1047.83,2332.5 1074.17,2332.5 1100.5,2332.5C 1100.5,2395.83 1100.5,2459.17 1100.5,2522.5 Z"/></g>
<g><path style="opacity:0.989" fill="#e1567f" d="M 1282.5,2522.5 C 1256.17,2522.5 1229.83,2522.5 1203.5,2522.5C 1203.5,2459.17 1203.5,2395.83 1203.5,2332.5C 1229.83,2332.5 1256.17,2332.5 1282.5,2332.5C 1282.5,2395.83 1282.5,2459.17 1282.5,2522.5 Z"/></g>
<g><path style="opacity:0.989" fill="#e1567f" d="M 1559.5,2522.5 C 1533.17,2522.5 1506.83,2522.5 1480.5,2522.5C 1480.67,2492.5 1480.5,2462.5 1480,2432.5C 1479.02,2421.71 1473.52,2414.21 1463.5,2410C 1451.72,2408.88 1439.89,2408.38 1428,2408.5C 1417.5,2408.67 1407,2408.83 1396.5,2409C 1387.6,2410.9 1381.43,2416.07 1378,2424.5C 1376.52,2457.1 1376.02,2489.77 1376.5,2522.5C 1350.17,2522.5 1323.83,2522.5 1297.5,2522.5C 1274.04,2369.46 1338.04,2307.96 1489.5,2338C 1527.5,2351.99 1550.33,2378.83 1558,2418.5C 1559.41,2453.15 1559.91,2487.81 1559.5,2522.5 Z"/></g>
<g><path style="opacity:0.99" fill="#e1557f" d="M 1921.5,2522.5 C 1855.5,2522.5 1789.5,2522.5 1723.5,2522.5C 1694.86,2507.96 1676.7,2484.96 1669,2453.5C 1661.87,2406.6 1678.37,2370.76 1718.5,2346C 1729.24,2340.3 1740.57,2336.3 1752.5,2334C 1793.81,2332.55 1835.14,2332.05 1876.5,2332.5C 1876.5,2357.83 1876.5,2383.17 1876.5,2408.5C 1839.13,2408.03 1801.79,2408.53 1764.5,2410C 1748.8,2415.57 1743.3,2426.4 1748,2442.5C 1751.74,2449.91 1757.57,2454.74 1765.5,2457C 1787.83,2457.33 1810.17,2457.67 1832.5,2458C 1874.69,2462.41 1904.35,2483.91 1921.5,2522.5 Z"/></g>
<g><path style="opacity:0.989" fill="#e1567f" d="M 2022.5,2522.5 C 1996.17,2522.5 1969.83,2522.5 1943.5,2522.5C 1943.33,2488.17 1943.5,2453.83 1944,2419.5C 1954.84,2369.32 1985.68,2340.49 2036.5,2333C 2061.5,2332.33 2086.5,2332.33 2111.5,2333C 2145.74,2337.27 2172.24,2353.77 2191,2382.5C 2200.51,2398.19 2205.01,2415.19 2204.5,2433.5C 2178.17,2433.5 2151.83,2433.5 2125.5,2433.5C 2124.58,2419.08 2116.91,2410.91 2102.5,2409C 2083.5,2408.33 2064.5,2408.33 2045.5,2409C 2033.97,2410.34 2026.47,2416.51 2023,2427.5C 2022.5,2459.16 2022.33,2490.83 2022.5,2522.5 Z"/></g>
<g><path style="opacity:0.992" fill="#e1557f" d="M 2480.5,2522.5 C 2393.5,2522.5 2306.5,2522.5 2219.5,2522.5C 2219.5,2459.17 2219.5,2395.83 2219.5,2332.5C 2245.83,2332.5 2272.17,2332.5 2298.5,2332.5C 2298.5,2374.17 2298.5,2415.83 2298.5,2457.5C 2332.83,2457.5 2367.17,2457.5 2401.5,2457.5C 2401.5,2415.83 2401.5,2374.17 2401.5,2332.5C 2427.83,2332.5 2454.17,2332.5 2480.5,2332.5C 2480.5,2395.83 2480.5,2459.17 2480.5,2522.5 Z"/></g>
<g><path style="opacity:0.991" fill="#e1567f" d="M 2757.5,2522.5 C 2731.17,2522.5 2704.83,2522.5 2678.5,2522.5C 2678.67,2491.83 2678.5,2461.16 2678,2430.5C 2676.12,2420.28 2670.28,2413.45 2660.5,2410C 2649.21,2408.91 2637.87,2408.41 2626.5,2408.5C 2615.13,2408.41 2603.79,2408.91 2592.5,2410C 2583.57,2413.26 2577.74,2419.43 2575,2428.5C 2574.5,2459.83 2574.33,2491.16 2574.5,2522.5C 2548.17,2522.5 2521.83,2522.5 2495.5,2522.5C 2495.33,2489.17 2495.5,2455.83 2496,2422.5C 2505.46,2370.71 2536.29,2340.88 2588.5,2333C 2613.5,2332.33 2638.5,2332.33 2663.5,2333C 2703.8,2338.06 2732.64,2358.89 2750,2395.5C 2752.82,2402.62 2754.82,2409.95 2756,2417.5C 2757.44,2452.47 2757.94,2487.47 2757.5,2522.5 Z"/></g>
<g><path style="opacity:0.99" fill="#e1567f" d="M 3033.5,2522.5 C 3007.17,2522.5 2980.83,2522.5 2954.5,2522.5C 2954.97,2490.12 2954.47,2457.78 2953,2425.5C 2948.79,2415.48 2941.29,2409.98 2930.5,2409C 2911.83,2408.33 2893.17,2408.33 2874.5,2409C 2863.71,2409.98 2856.21,2415.48 2852,2425.5C 2850.53,2457.78 2850.03,2490.12 2850.5,2522.5C 2824.17,2522.5 2797.83,2522.5 2771.5,2522.5C 2771.05,2487.14 2771.55,2451.81 2773,2416.5C 2781.14,2379.04 2802.97,2353.2 2838.5,2339C 2846.95,2336.05 2855.61,2334.05 2864.5,2333C 2889.83,2332.33 2915.17,2332.33 2940.5,2333C 2980.43,2338.37 3008.93,2359.2 3026,2395.5C 3028.78,2402.27 3030.78,2409.27 3032,2416.5C 3033.45,2451.81 3033.95,2487.14 3033.5,2522.5 Z"/></g>
<g><path style="opacity:0.983" fill="#e1567f" d="M 3127.5,2522.5 C 3100.83,2522.5 3074.17,2522.5 3047.5,2522.5C 3047.5,2459.17 3047.5,2395.83 3047.5,2332.5C 3074.17,2332.5 3100.83,2332.5 3127.5,2332.5C 3127.5,2395.83 3127.5,2459.17 3127.5,2522.5 Z"/></g>
<g><path style="opacity:0.987" fill="#e1587d" d="M 319.5,2522.5 C 346.167,2522.5 372.833,2522.5 399.5,2522.5C 398.434,2524.7 397.767,2527.03 397.5,2529.5C 370.833,2529.5 344.167,2529.5 317.5,2529.5C 318.319,2527.23 318.985,2524.89 319.5,2522.5 Z"/></g>
<g><path style="opacity:0.987" fill="#e1587d" d="M 426.5,2522.5 C 452.833,2522.5 479.167,2522.5 505.5,2522.5C 506.566,2524.7 507.233,2527.03 507.5,2529.5C 481.167,2529.5 454.833,2529.5 428.5,2529.5C 427.434,2527.3 426.767,2524.97 426.5,2522.5 Z"/></g>
<g><path style="opacity:0.991" fill="#e1587d" d="M 558.5,2522.5 C 584.833,2522.5 611.167,2522.5 637.5,2522.5C 637.5,2524.83 637.5,2527.17 637.5,2529.5C 611.167,2529.5 584.833,2529.5 558.5,2529.5C 558.5,2527.17 558.5,2524.83 558.5,2522.5 Z"/></g>
<g><path style="opacity:0.999" fill="#e1587d" d="M 745.5,2522.5 C 832.5,2522.5 919.5,2522.5 1006.5,2522.5C 1006.5,2524.83 1006.5,2527.17 1006.5,2529.5C 919.5,2529.5 832.5,2529.5 745.5,2529.5C 745.5,2527.17 745.5,2524.83 745.5,2522.5 Z"/></g>
<g><path style="opacity:0.991" fill="#e1587d" d="M 1021.5,2522.5 C 1047.83,2522.5 1074.17,2522.5 1100.5,2522.5C 1100.5,2524.83 1100.5,2527.17 1100.5,2529.5C 1074.17,2529.5 1047.83,2529.5 1021.5,2529.5C 1021.5,2527.17 1021.5,2524.83 1021.5,2522.5 Z"/></g>
<g><path style="opacity:0.991" fill="#e1587d" d="M 1203.5,2522.5 C 1229.83,2522.5 1256.17,2522.5 1282.5,2522.5C 1282.5,2524.83 1282.5,2527.17 1282.5,2529.5C 1256.17,2529.5 1229.83,2529.5 1203.5,2529.5C 1203.5,2527.17 1203.5,2524.83 1203.5,2522.5 Z"/></g>
<g><path style="opacity:0.991" fill="#e1587d" d="M 1297.5,2522.5 C 1323.83,2522.5 1350.17,2522.5 1376.5,2522.5C 1376.5,2524.83 1376.5,2527.17 1376.5,2529.5C 1350.17,2529.5 1323.83,2529.5 1297.5,2529.5C 1297.5,2527.17 1297.5,2524.83 1297.5,2522.5 Z"/></g>
<g><path style="opacity:0.991" fill="#e1587d" d="M 1480.5,2522.5 C 1506.83,2522.5 1533.17,2522.5 1559.5,2522.5C 1559.5,2524.83 1559.5,2527.17 1559.5,2529.5C 1533.17,2529.5 1506.83,2529.5 1480.5,2529.5C 1480.5,2527.17 1480.5,2524.83 1480.5,2522.5 Z"/></g>
<g><path style="opacity:0.99" fill="#e1587d" d="M 1723.5,2522.5 C 1789.5,2522.5 1855.5,2522.5 1921.5,2522.5C 1922.68,2524.68 1923.68,2527.01 1924.5,2529.5C 1863.5,2529.5 1802.5,2529.5 1741.5,2529.5C 1734.98,2528.33 1728.98,2526 1723.5,2522.5 Z"/></g>
<g><path style="opacity:0.991" fill="#e1587d" d="M 1943.5,2522.5 C 1969.83,2522.5 1996.17,2522.5 2022.5,2522.5C 2022.5,2524.83 2022.5,2527.17 2022.5,2529.5C 1996.17,2529.5 1969.83,2529.5 1943.5,2529.5C 1943.5,2527.17 1943.5,2524.83 1943.5,2522.5 Z"/></g>
<g><path style="opacity:0.999" fill="#e1587d" d="M 2219.5,2522.5 C 2306.5,2522.5 2393.5,2522.5 2480.5,2522.5C 2480.5,2524.83 2480.5,2527.17 2480.5,2529.5C 2393.5,2529.5 2306.5,2529.5 2219.5,2529.5C 2219.5,2527.17 2219.5,2524.83 2219.5,2522.5 Z"/></g>
<g><path style="opacity:0.994" fill="#e1587d" d="M 2495.5,2522.5 C 2521.83,2522.5 2548.17,2522.5 2574.5,2522.5C 2574.5,2524.83 2574.5,2527.17 2574.5,2529.5C 2548.17,2529.5 2521.83,2529.5 2495.5,2529.5C 2495.5,2527.17 2495.5,2524.83 2495.5,2522.5 Z"/></g>
<g><path style="opacity:0.991" fill="#e1587d" d="M 2678.5,2522.5 C 2704.83,2522.5 2731.17,2522.5 2757.5,2522.5C 2757.5,2524.83 2757.5,2527.17 2757.5,2529.5C 2731.17,2529.5 2704.83,2529.5 2678.5,2529.5C 2678.5,2527.17 2678.5,2524.83 2678.5,2522.5 Z"/></g>
<g><path style="opacity:0.991" fill="#e1587d" d="M 2771.5,2522.5 C 2797.83,2522.5 2824.17,2522.5 2850.5,2522.5C 2850.5,2524.83 2850.5,2527.17 2850.5,2529.5C 2824.17,2529.5 2797.83,2529.5 2771.5,2529.5C 2771.5,2527.17 2771.5,2524.83 2771.5,2522.5 Z"/></g>
<g><path style="opacity:0.991" fill="#e1587d" d="M 2954.5,2522.5 C 2980.83,2522.5 3007.17,2522.5 3033.5,2522.5C 3033.5,2524.83 3033.5,2527.17 3033.5,2529.5C 3007.17,2529.5 2980.83,2529.5 2954.5,2529.5C 2954.5,2527.17 2954.5,2524.83 2954.5,2522.5 Z"/></g>
<g><path style="opacity:0.984" fill="#e1587d" d="M 3047.5,2522.5 C 3074.17,2522.5 3100.83,2522.5 3127.5,2522.5C 3127.5,2524.83 3127.5,2527.17 3127.5,2529.5C 3100.83,2529.5 3074.17,2529.5 3047.5,2529.5C 3047.5,2527.17 3047.5,2524.83 3047.5,2522.5 Z"/></g>
<g><path style="opacity:0.988" fill="#e25879" d="M 317.5,2529.5 C 344.167,2529.5 370.833,2529.5 397.5,2529.5C 394.5,2539.5 391.5,2549.5 388.5,2559.5C 362.167,2559.5 335.833,2559.5 309.5,2559.5C 312.167,2549.5 314.834,2539.5 317.5,2529.5 Z"/></g>
<g><path style="opacity:0.988" fill="#e25879" d="M 428.5,2529.5 C 454.833,2529.5 481.167,2529.5 507.5,2529.5C 510.773,2539.32 513.439,2549.32 515.5,2559.5C 489.167,2559.5 462.833,2559.5 436.5,2559.5C 433.63,2549.56 430.963,2539.56 428.5,2529.5 Z"/></g>
<g><path style="opacity:0.991" fill="#e25879" d="M 558.5,2529.5 C 584.833,2529.5 611.167,2529.5 637.5,2529.5C 637.5,2539.5 637.5,2549.5 637.5,2559.5C 611.167,2559.5 584.833,2559.5 558.5,2559.5C 558.5,2549.5 558.5,2539.5 558.5,2529.5 Z"/></g>
<g><path style="opacity:0.952" fill="#e2587a" d="M 745.5,2529.5 C 832.5,2529.5 919.5,2529.5 1006.5,2529.5C 1006.5,2531.17 1006.5,2532.83 1006.5,2534.5C 945.833,2534.5 885.167,2534.5 824.5,2534.5C 824.5,2542.83 824.5,2551.17 824.5,2559.5C 798.167,2559.5 771.833,2559.5 745.5,2559.5C 745.5,2549.5 745.5,2539.5 745.5,2529.5 Z"/></g>
<g><path style="opacity:0.991" fill="#e25879" d="M 1021.5,2529.5 C 1047.83,2529.5 1074.17,2529.5 1100.5,2529.5C 1100.5,2539.5 1100.5,2549.5 1100.5,2559.5C 1074.17,2559.5 1047.83,2559.5 1021.5,2559.5C 1021.5,2549.5 1021.5,2539.5 1021.5,2529.5 Z"/></g>
<g><path style="opacity:0.991" fill="#e25879" d="M 1203.5,2529.5 C 1229.83,2529.5 1256.17,2529.5 1282.5,2529.5C 1282.5,2539.5 1282.5,2549.5 1282.5,2559.5C 1256.17,2559.5 1229.83,2559.5 1203.5,2559.5C 1203.5,2549.5 1203.5,2539.5 1203.5,2529.5 Z"/></g>
<g><path style="opacity:0.991" fill="#e25879" d="M 1297.5,2529.5 C 1323.83,2529.5 1350.17,2529.5 1376.5,2529.5C 1376.5,2539.5 1376.5,2549.5 1376.5,2559.5C 1350.17,2559.5 1323.83,2559.5 1297.5,2559.5C 1297.5,2549.5 1297.5,2539.5 1297.5,2529.5 Z"/></g>
<g><path style="opacity:0.991" fill="#e25879" d="M 1480.5,2529.5 C 1506.83,2529.5 1533.17,2529.5 1559.5,2529.5C 1559.5,2539.5 1559.5,2549.5 1559.5,2559.5C 1533.17,2559.5 1506.83,2559.5 1480.5,2559.5C 1480.5,2549.5 1480.5,2539.5 1480.5,2529.5 Z"/></g>
<g><path style="opacity:0.97" fill="#e2587a" d="M 1741.5,2529.5 C 1802.5,2529.5 1863.5,2529.5 1924.5,2529.5C 1927.42,2539.27 1928.75,2549.27 1928.5,2559.5C 1902.17,2559.5 1875.83,2559.5 1849.5,2559.5C 1849.01,2546.84 1842.68,2538.68 1830.5,2535C 1808.83,2534.67 1787.17,2534.33 1765.5,2534C 1757.14,2533.67 1749.14,2532.17 1741.5,2529.5 Z"/></g>
<g><path style="opacity:0.991" fill="#e25879" d="M 1943.5,2529.5 C 1969.83,2529.5 1996.17,2529.5 2022.5,2529.5C 2022.5,2539.5 2022.5,2549.5 2022.5,2559.5C 1996.17,2559.5 1969.83,2559.5 1943.5,2559.5C 1943.5,2549.5 1943.5,2539.5 1943.5,2529.5 Z"/></g>
<g><path style="opacity:0.978" fill="#e25879" d="M 2219.5,2529.5 C 2306.5,2529.5 2393.5,2529.5 2480.5,2529.5C 2480.5,2539.5 2480.5,2549.5 2480.5,2559.5C 2454.17,2559.5 2427.83,2559.5 2401.5,2559.5C 2401.5,2551.17 2401.5,2542.83 2401.5,2534.5C 2367.17,2534.5 2332.83,2534.5 2298.5,2534.5C 2298.5,2542.83 2298.5,2551.17 2298.5,2559.5C 2272.17,2559.5 2245.83,2559.5 2219.5,2559.5C 2219.5,2549.5 2219.5,2539.5 2219.5,2529.5 Z"/></g>
<g><path style="opacity:0.994" fill="#e25879" d="M 2495.5,2529.5 C 2521.83,2529.5 2548.17,2529.5 2574.5,2529.5C 2574.5,2539.5 2574.5,2549.5 2574.5,2559.5C 2548.17,2559.5 2521.83,2559.5 2495.5,2559.5C 2495.5,2549.5 2495.5,2539.5 2495.5,2529.5 Z"/></g>
<g><path style="opacity:0.991" fill="#e25879" d="M 2678.5,2529.5 C 2704.83,2529.5 2731.17,2529.5 2757.5,2529.5C 2757.5,2539.5 2757.5,2549.5 2757.5,2559.5C 2731.17,2559.5 2704.83,2559.5 2678.5,2559.5C 2678.5,2549.5 2678.5,2539.5 2678.5,2529.5 Z"/></g>
<g><path style="opacity:0.991" fill="#e25879" d="M 2771.5,2529.5 C 2797.83,2529.5 2824.17,2529.5 2850.5,2529.5C 2850.5,2539.5 2850.5,2549.5 2850.5,2559.5C 2824.17,2559.5 2797.83,2559.5 2771.5,2559.5C 2771.5,2549.5 2771.5,2539.5 2771.5,2529.5 Z"/></g>
<g><path style="opacity:0.991" fill="#e25879" d="M 2954.5,2529.5 C 2980.83,2529.5 3007.17,2529.5 3033.5,2529.5C 3033.5,2539.5 3033.5,2549.5 3033.5,2559.5C 3007.17,2559.5 2980.83,2559.5 2954.5,2559.5C 2954.5,2549.5 2954.5,2539.5 2954.5,2529.5 Z"/></g>
<g><path style="opacity:0.984" fill="#e25879" d="M 3047.5,2529.5 C 3074.17,2529.5 3100.83,2529.5 3127.5,2529.5C 3127.5,2539.5 3127.5,2549.5 3127.5,2559.5C 3100.83,2559.5 3074.17,2559.5 3047.5,2559.5C 3047.5,2549.5 3047.5,2539.5 3047.5,2529.5 Z"/></g>
<g><path style="opacity:0.988" fill="#e25a73" d="M 309.5,2559.5 C 335.833,2559.5 362.167,2559.5 388.5,2559.5C 385.9,2570.3 382.9,2580.96 379.5,2591.5C 353.167,2591.5 326.833,2591.5 300.5,2591.5C 303.504,2580.82 306.504,2570.15 309.5,2559.5 Z"/></g>
<g><path style="opacity:0.988" fill="#e25a73" d="M 436.5,2559.5 C 462.833,2559.5 489.167,2559.5 515.5,2559.5C 519.101,2569.89 522.101,2580.56 524.5,2591.5C 498.167,2591.5 471.833,2591.5 445.5,2591.5C 442.496,2580.82 439.496,2570.15 436.5,2559.5 Z"/></g>
<g><path style="opacity:0.991" fill="#e25a73" d="M 558.5,2559.5 C 584.833,2559.5 611.167,2559.5 637.5,2559.5C 637.5,2570.17 637.5,2580.83 637.5,2591.5C 611.167,2591.5 584.833,2591.5 558.5,2591.5C 558.5,2580.83 558.5,2570.17 558.5,2559.5 Z"/></g>
<g><path style="opacity:0.991" fill="#e25a73" d="M 745.5,2559.5 C 771.833,2559.5 798.167,2559.5 824.5,2559.5C 824.5,2570.17 824.5,2580.83 824.5,2591.5C 798.167,2591.5 771.833,2591.5 745.5,2591.5C 745.5,2580.83 745.5,2570.17 745.5,2559.5 Z"/></g>
<g><path style="opacity:0.988" fill="#e25a73" d="M 1021.5,2559.5 C 1047.83,2559.5 1074.17,2559.5 1100.5,2559.5C 1101.68,2572.52 1108.68,2580.35 1121.5,2583C 1141.83,2583.67 1162.17,2583.67 1182.5,2583C 1195.32,2580.35 1202.32,2572.52 1203.5,2559.5C 1229.83,2559.5 1256.17,2559.5 1282.5,2559.5C 1282.78,2570.49 1281.11,2581.15 1277.5,2591.5C 1193.83,2591.5 1110.17,2591.5 1026.5,2591.5C 1022.89,2581.15 1021.22,2570.49 1021.5,2559.5 Z"/></g>
<g><path style="opacity:0.991" fill="#e25a73" d="M 1297.5,2559.5 C 1323.83,2559.5 1350.17,2559.5 1376.5,2559.5C 1376.5,2570.17 1376.5,2580.83 1376.5,2591.5C 1350.17,2591.5 1323.83,2591.5 1297.5,2591.5C 1297.5,2580.83 1297.5,2570.17 1297.5,2559.5 Z"/></g>
<g><path style="opacity:0.991" fill="#e25a73" d="M 1480.5,2559.5 C 1506.83,2559.5 1533.17,2559.5 1559.5,2559.5C 1559.5,2570.17 1559.5,2580.83 1559.5,2591.5C 1533.17,2591.5 1506.83,2591.5 1480.5,2591.5C 1480.5,2580.83 1480.5,2570.17 1480.5,2559.5 Z"/></g>
<g><path style="opacity:0.982" fill="#e25a72" d="M 1849.5,2559.5 C 1875.83,2559.5 1902.17,2559.5 1928.5,2559.5C 1928.56,2570.45 1926.9,2581.12 1923.5,2591.5C 1838.17,2591.5 1752.83,2591.5 1667.5,2591.5C 1667.5,2588.83 1667.5,2586.17 1667.5,2583.5C 1720.83,2583.67 1774.17,2583.5 1827.5,2583C 1840.23,2580.11 1847.56,2572.28 1849.5,2559.5 Z"/></g>
<g><path style="opacity:0.988" fill="#e25a73" d="M 2199.5,2591.5 C 2115.83,2591.5 2032.17,2591.5 1948.5,2591.5C 1944.89,2581.15 1943.22,2570.49 1943.5,2559.5C 1969.83,2559.5 1996.17,2559.5 2022.5,2559.5C 2023.68,2572.52 2030.68,2580.35 2043.5,2583C 2063.83,2583.67 2084.17,2583.67 2104.5,2583C 2117.79,2580.21 2124.79,2572.05 2125.5,2558.5C 2151.83,2558.5 2178.17,2558.5 2204.5,2558.5C 2204.89,2569.83 2203.22,2580.83 2199.5,2591.5 Z"/></g>
<g><path style="opacity:0.991" fill="#e25a73" d="M 2219.5,2559.5 C 2245.83,2559.5 2272.17,2559.5 2298.5,2559.5C 2298.5,2570.17 2298.5,2580.83 2298.5,2591.5C 2272.17,2591.5 2245.83,2591.5 2219.5,2591.5C 2219.5,2580.83 2219.5,2570.17 2219.5,2559.5 Z"/></g>
<g><path style="opacity:0.991" fill="#e25a73" d="M 2401.5,2559.5 C 2427.83,2559.5 2454.17,2559.5 2480.5,2559.5C 2480.5,2570.17 2480.5,2580.83 2480.5,2591.5C 2454.17,2591.5 2427.83,2591.5 2401.5,2591.5C 2401.5,2580.83 2401.5,2570.17 2401.5,2559.5 Z"/></g>
<g><path style="opacity:0.987" fill="#e25a73" d="M 2495.5,2559.5 C 2521.83,2559.5 2548.17,2559.5 2574.5,2559.5C 2575.75,2570.26 2581.41,2577.76 2591.5,2582C 2602.95,2583.12 2614.45,2583.62 2626,2583.5C 2636.17,2583.33 2646.33,2583.17 2656.5,2583C 2669.17,2580.17 2676.5,2572.33 2678.5,2559.5C 2704.83,2559.5 2731.17,2559.5 2757.5,2559.5C 2757.16,2570.52 2755.16,2581.18 2751.5,2591.5C 2668.17,2591.5 2584.83,2591.5 2501.5,2591.5C 2497.38,2581.36 2495.38,2570.69 2495.5,2559.5 Z"/></g>
<g><path style="opacity:0.987" fill="#e25a73" d="M 2771.5,2559.5 C 2797.83,2559.5 2824.17,2559.5 2850.5,2559.5C 2851.78,2570.29 2857.45,2577.79 2867.5,2582C 2879.11,2583.12 2890.78,2583.62 2902.5,2583.5C 2914.22,2583.62 2925.89,2583.12 2937.5,2582C 2947.55,2577.79 2953.22,2570.29 2954.5,2559.5C 2980.83,2559.5 3007.17,2559.5 3033.5,2559.5C 3033.4,2570.65 3031.4,2581.31 3027.5,2591.5C 2944.17,2591.5 2860.83,2591.5 2777.5,2591.5C 2773.6,2581.31 2771.6,2570.65 2771.5,2559.5 Z"/></g>
<g><path style="opacity:0.984" fill="#e25a73" d="M 3047.5,2559.5 C 3074.17,2559.5 3100.83,2559.5 3127.5,2559.5C 3128.86,2572.38 3135.86,2580.21 3148.5,2583C 3176.16,2583.5 3203.83,2583.67 3231.5,2583.5C 3231.5,2586.17 3231.5,2588.83 3231.5,2591.5C 3172.17,2591.5 3112.83,2591.5 3053.5,2591.5C 3049.78,2581.2 3047.78,2570.53 3047.5,2559.5 Z"/></g>
<g><path style="opacity:0.988" fill="#e35b6d" d="M 300.5,2591.5 C 326.833,2591.5 353.167,2591.5 379.5,2591.5C 377.323,2600.54 374.989,2609.54 372.5,2618.5C 346.167,2618.5 319.833,2618.5 293.5,2618.5C 295.364,2609.38 297.697,2600.38 300.5,2591.5 Z"/></g>
<g><path style="opacity:0.987" fill="#e35b6d" d="M 445.5,2591.5 C 471.833,2591.5 498.167,2591.5 524.5,2591.5C 527.302,2600.35 529.968,2609.35 532.5,2618.5C 506.167,2618.5 479.833,2618.5 453.5,2618.5C 450.698,2609.65 448.032,2600.65 445.5,2591.5 Z"/></g>
<g><path style="opacity:0.991" fill="#e35b6d" d="M 558.5,2591.5 C 584.833,2591.5 611.167,2591.5 637.5,2591.5C 637.5,2600.5 637.5,2609.5 637.5,2618.5C 611.167,2618.5 584.833,2618.5 558.5,2618.5C 558.5,2609.5 558.5,2600.5 558.5,2591.5 Z"/></g>
<g><path style="opacity:0.991" fill="#e35b6d" d="M 745.5,2591.5 C 771.833,2591.5 798.167,2591.5 824.5,2591.5C 824.5,2600.5 824.5,2609.5 824.5,2618.5C 798.167,2618.5 771.833,2618.5 745.5,2618.5C 745.5,2609.5 745.5,2600.5 745.5,2591.5 Z"/></g>
<g><path style="opacity:0.995" fill="#e35b6d" d="M 1026.5,2591.5 C 1110.17,2591.5 1193.83,2591.5 1277.5,2591.5C 1273.78,2601.27 1268.78,2610.27 1262.5,2618.5C 1188.83,2618.5 1115.17,2618.5 1041.5,2618.5C 1035.22,2610.27 1030.22,2601.27 1026.5,2591.5 Z"/></g>
<g><path style="opacity:0.991" fill="#e35b6d" d="M 1297.5,2591.5 C 1323.83,2591.5 1350.17,2591.5 1376.5,2591.5C 1376.5,2600.5 1376.5,2609.5 1376.5,2618.5C 1350.17,2618.5 1323.83,2618.5 1297.5,2618.5C 1297.5,2609.5 1297.5,2600.5 1297.5,2591.5 Z"/></g>
<g><path style="opacity:0.991" fill="#e35b6d" d="M 1480.5,2591.5 C 1506.83,2591.5 1533.17,2591.5 1559.5,2591.5C 1559.5,2600.5 1559.5,2609.5 1559.5,2618.5C 1533.17,2618.5 1506.83,2618.5 1480.5,2618.5C 1480.5,2609.5 1480.5,2600.5 1480.5,2591.5 Z"/></g>
<g><path style="opacity:0.998" fill="#e35b6d" d="M 1667.5,2591.5 C 1752.83,2591.5 1838.17,2591.5 1923.5,2591.5C 1919.78,2601.27 1914.78,2610.27 1908.5,2618.5C 1828.17,2618.5 1747.83,2618.5 1667.5,2618.5C 1667.5,2609.5 1667.5,2600.5 1667.5,2591.5 Z"/></g>
<g><path style="opacity:0.995" fill="#e35b6d" d="M 1948.5,2591.5 C 2032.17,2591.5 2115.83,2591.5 2199.5,2591.5C 2195.78,2601.27 2190.78,2610.27 2184.5,2618.5C 2110.83,2618.5 2037.17,2618.5 1963.5,2618.5C 1957.22,2610.27 1952.22,2601.27 1948.5,2591.5 Z"/></g>
<g><path style="opacity:0.991" fill="#e35b6d" d="M 2219.5,2591.5 C 2245.83,2591.5 2272.17,2591.5 2298.5,2591.5C 2298.5,2600.5 2298.5,2609.5 2298.5,2618.5C 2272.17,2618.5 2245.83,2618.5 2219.5,2618.5C 2219.5,2609.5 2219.5,2600.5 2219.5,2591.5 Z"/></g>
<g><path style="opacity:0.991" fill="#e35b6d" d="M 2401.5,2591.5 C 2427.83,2591.5 2454.17,2591.5 2480.5,2591.5C 2480.5,2600.5 2480.5,2609.5 2480.5,2618.5C 2454.17,2618.5 2427.83,2618.5 2401.5,2618.5C 2401.5,2609.5 2401.5,2600.5 2401.5,2591.5 Z"/></g>
<g><path style="opacity:0.995" fill="#e35b6d" d="M 2501.5,2591.5 C 2584.83,2591.5 2668.17,2591.5 2751.5,2591.5C 2748.29,2601.6 2743.29,2610.6 2736.5,2618.5C 2663.17,2618.5 2589.83,2618.5 2516.5,2618.5C 2512.47,2613.96 2508.97,2608.96 2506,2603.5C 2504.2,2599.58 2502.7,2595.58 2501.5,2591.5 Z"/></g>
<g><path style="opacity:0.995" fill="#e35b6d" d="M 2777.5,2591.5 C 2860.83,2591.5 2944.17,2591.5 3027.5,2591.5C 3024.29,2601.6 3019.29,2610.6 3012.5,2618.5C 2939.17,2618.5 2865.83,2618.5 2792.5,2618.5C 2785.71,2610.6 2780.71,2601.6 2777.5,2591.5 Z"/></g>
<g><path style="opacity:0.994" fill="#e35b6d" d="M 3053.5,2591.5 C 3112.83,2591.5 3172.17,2591.5 3231.5,2591.5C 3231.5,2600.5 3231.5,2609.5 3231.5,2618.5C 3177.17,2618.5 3122.83,2618.5 3068.5,2618.5C 3061.71,2610.6 3056.71,2601.6 3053.5,2591.5 Z"/></g>
<g><path style="opacity:0.988" fill="#e35c69" d="M 293.5,2618.5 C 319.833,2618.5 346.167,2618.5 372.5,2618.5C 371.89,2619.39 371.557,2620.39 371.5,2621.5C 345.167,2621.5 318.833,2621.5 292.5,2621.5C 292.263,2620.21 292.596,2619.21 293.5,2618.5 Z"/></g>
<g><path style="opacity:0.988" fill="#e35c69" d="M 453.5,2618.5 C 479.833,2618.5 506.167,2618.5 532.5,2618.5C 532.557,2619.61 532.89,2620.61 533.5,2621.5C 507.167,2621.5 480.833,2621.5 454.5,2621.5C 453.596,2620.79 453.263,2619.79 453.5,2618.5 Z"/></g>
<g><path style="opacity:0.991" fill="#e35c69" d="M 558.5,2618.5 C 584.833,2618.5 611.167,2618.5 637.5,2618.5C 637.5,2619.5 637.5,2620.5 637.5,2621.5C 611.167,2621.5 584.833,2621.5 558.5,2621.5C 558.5,2620.5 558.5,2619.5 558.5,2618.5 Z"/></g>
<g><path style="opacity:0.991" fill="#e35c69" d="M 745.5,2618.5 C 771.833,2618.5 798.167,2618.5 824.5,2618.5C 824.5,2619.5 824.5,2620.5 824.5,2621.5C 798.167,2621.5 771.833,2621.5 745.5,2621.5C 745.5,2620.5 745.5,2619.5 745.5,2618.5 Z"/></g>
<g><path style="opacity:0.993" fill="#e35c69" d="M 1041.5,2618.5 C 1115.17,2618.5 1188.83,2618.5 1262.5,2618.5C 1261.83,2619.83 1260.83,2620.83 1259.5,2621.5C 1187.83,2621.5 1116.17,2621.5 1044.5,2621.5C 1043.17,2620.83 1042.17,2619.83 1041.5,2618.5 Z"/></g>
<g><path style="opacity:0.991" fill="#e35c69" d="M 1297.5,2618.5 C 1323.83,2618.5 1350.17,2618.5 1376.5,2618.5C 1376.5,2619.5 1376.5,2620.5 1376.5,2621.5C 1350.17,2621.5 1323.83,2621.5 1297.5,2621.5C 1297.5,2620.5 1297.5,2619.5 1297.5,2618.5 Z"/></g>
<g><path style="opacity:0.991" fill="#e35c69" d="M 1480.5,2618.5 C 1506.83,2618.5 1533.17,2618.5 1559.5,2618.5C 1559.5,2619.5 1559.5,2620.5 1559.5,2621.5C 1533.17,2621.5 1506.83,2621.5 1480.5,2621.5C 1480.5,2620.5 1480.5,2619.5 1480.5,2618.5 Z"/></g>
<g><path style="opacity:0.996" fill="#e35c69" d="M 1667.5,2618.5 C 1747.83,2618.5 1828.17,2618.5 1908.5,2618.5C 1907.83,2619.83 1906.83,2620.83 1905.5,2621.5C 1826.17,2621.5 1746.83,2621.5 1667.5,2621.5C 1667.5,2620.5 1667.5,2619.5 1667.5,2618.5 Z"/></g>
<g><path style="opacity:0.993" fill="#e35c69" d="M 1963.5,2618.5 C 2037.17,2618.5 2110.83,2618.5 2184.5,2618.5C 2183.83,2619.83 2182.83,2620.83 2181.5,2621.5C 2109.83,2621.5 2038.17,2621.5 1966.5,2621.5C 1965.17,2620.83 1964.17,2619.83 1963.5,2618.5 Z"/></g>
<g><path style="opacity:0.991" fill="#e35c69" d="M 2219.5,2618.5 C 2245.83,2618.5 2272.17,2618.5 2298.5,2618.5C 2298.5,2619.5 2298.5,2620.5 2298.5,2621.5C 2272.17,2621.5 2245.83,2621.5 2219.5,2621.5C 2219.5,2620.5 2219.5,2619.5 2219.5,2618.5 Z"/></g>
<g><path style="opacity:0.991" fill="#e35c69" d="M 2401.5,2618.5 C 2427.83,2618.5 2454.17,2618.5 2480.5,2618.5C 2480.5,2619.5 2480.5,2620.5 2480.5,2621.5C 2454.17,2621.5 2427.83,2621.5 2401.5,2621.5C 2401.5,2620.5 2401.5,2619.5 2401.5,2618.5 Z"/></g>
<g><path style="opacity:0.995" fill="#e35c69" d="M 2516.5,2618.5 C 2589.83,2618.5 2663.17,2618.5 2736.5,2618.5C 2735.83,2619.5 2735.17,2620.5 2734.5,2621.5C 2662.5,2621.5 2590.5,2621.5 2518.5,2621.5C 2517.09,2621.03 2516.43,2620.03 2516.5,2618.5 Z"/></g>
<g><path style="opacity:0.995" fill="#e35c69" d="M 2792.5,2618.5 C 2865.83,2618.5 2939.17,2618.5 3012.5,2618.5C 3012.07,2619.71 3011.4,2620.71 3010.5,2621.5C 2938.5,2621.5 2866.5,2621.5 2794.5,2621.5C 2793.6,2620.71 2792.93,2619.71 2792.5,2618.5 Z"/></g>
<g><path style="opacity:0.994" fill="#e35c69" d="M 3068.5,2618.5 C 3122.83,2618.5 3177.17,2618.5 3231.5,2618.5C 3231.5,2619.5 3231.5,2620.5 3231.5,2621.5C 3177.83,2621.5 3124.17,2621.5 3070.5,2621.5C 3069.83,2620.5 3069.17,2619.5 3068.5,2618.5 Z"/></g>
<g><path style="opacity:0.975" fill="#e45d67" d="M 292.5,2621.5 C 318.833,2621.5 345.167,2621.5 371.5,2621.5C 368.22,2634.12 364.553,2646.62 360.5,2659C 334.16,2659.83 307.827,2659.67 281.5,2658.5C 285.034,2646.01 288.701,2633.68 292.5,2621.5 Z"/></g>
<g><path style="opacity:0.976" fill="#e45d67" d="M 454.5,2621.5 C 480.833,2621.5 507.167,2621.5 533.5,2621.5C 536.833,2634.17 540.167,2646.83 543.5,2659.5C 517.158,2659.83 490.825,2659.5 464.5,2658.5C 460.695,2646.28 457.361,2633.94 454.5,2621.5 Z"/></g>
<g><path style="opacity:0.978" fill="#e45d67" d="M 558.5,2621.5 C 584.833,2621.5 611.167,2621.5 637.5,2621.5C 637.5,2634.17 637.5,2646.83 637.5,2659.5C 611.167,2659.5 584.833,2659.5 558.5,2659.5C 558.5,2646.83 558.5,2634.17 558.5,2621.5 Z"/></g>
<g><path style="opacity:0.978" fill="#e45d67" d="M 745.5,2621.5 C 771.833,2621.5 798.167,2621.5 824.5,2621.5C 824.5,2634.17 824.5,2646.83 824.5,2659.5C 798.167,2659.5 771.833,2659.5 745.5,2659.5C 745.5,2646.83 745.5,2634.17 745.5,2621.5 Z"/></g>
<g><path style="opacity:0.981" fill="#e45d67" d="M 1044.5,2621.5 C 1116.17,2621.5 1187.83,2621.5 1259.5,2621.5C 1247.94,2636.13 1233.27,2646.63 1215.5,2653C 1206.44,2656.27 1197.1,2658.27 1187.5,2659C 1163.83,2659.67 1140.17,2659.67 1116.5,2659C 1093,2656.91 1072.34,2648.25 1054.5,2633C 1050.58,2629.59 1047.25,2625.76 1044.5,2621.5 Z"/></g>
<g><path style="opacity:0.978" fill="#e45d67" d="M 1297.5,2621.5 C 1323.83,2621.5 1350.17,2621.5 1376.5,2621.5C 1376.5,2634.17 1376.5,2646.83 1376.5,2659.5C 1350.17,2659.5 1323.83,2659.5 1297.5,2659.5C 1297.5,2646.83 1297.5,2634.17 1297.5,2621.5 Z"/></g>
<g><path style="opacity:0.978" fill="#e45d67" d="M 1480.5,2621.5 C 1506.83,2621.5 1533.17,2621.5 1559.5,2621.5C 1559.5,2634.17 1559.5,2646.83 1559.5,2659.5C 1533.17,2659.5 1506.83,2659.5 1480.5,2659.5C 1480.5,2646.83 1480.5,2634.17 1480.5,2621.5 Z"/></g>
<g><path style="opacity:0.984" fill="#e45d67" d="M 1667.5,2621.5 C 1746.83,2621.5 1826.17,2621.5 1905.5,2621.5C 1888.93,2641.63 1867.6,2653.8 1841.5,2658C 1783.53,2659.47 1725.53,2659.97 1667.5,2659.5C 1667.5,2646.83 1667.5,2634.17 1667.5,2621.5 Z"/></g>
<g><path style="opacity:0.981" fill="#e45d67" d="M 1966.5,2621.5 C 2038.17,2621.5 2109.83,2621.5 2181.5,2621.5C 2169.94,2636.13 2155.27,2646.63 2137.5,2653C 2128.44,2656.27 2119.1,2658.27 2109.5,2659C 2085.83,2659.67 2062.17,2659.67 2038.5,2659C 2015,2656.91 1994.34,2648.25 1976.5,2633C 1972.58,2629.59 1969.25,2625.76 1966.5,2621.5 Z"/></g>
<g><path style="opacity:0.978" fill="#e45d67" d="M 2219.5,2621.5 C 2245.83,2621.5 2272.17,2621.5 2298.5,2621.5C 2298.5,2634.17 2298.5,2646.83 2298.5,2659.5C 2272.17,2659.5 2245.83,2659.5 2219.5,2659.5C 2219.5,2646.83 2219.5,2634.17 2219.5,2621.5 Z"/></g>
<g><path style="opacity:0.978" fill="#e45d67" d="M 2401.5,2621.5 C 2427.83,2621.5 2454.17,2621.5 2480.5,2621.5C 2480.5,2634.17 2480.5,2646.83 2480.5,2659.5C 2454.17,2659.5 2427.83,2659.5 2401.5,2659.5C 2401.5,2646.83 2401.5,2634.17 2401.5,2621.5 Z"/></g>
<g><path style="opacity:0.982" fill="#e45d67" d="M 2518.5,2621.5 C 2590.5,2621.5 2662.5,2621.5 2734.5,2621.5C 2717.55,2641.15 2696.21,2653.32 2670.5,2658C 2643.86,2659.58 2617.19,2659.92 2590.5,2659C 2561.22,2656.2 2537.22,2643.7 2518.5,2621.5 Z"/></g>
<g><path style="opacity:0.981" fill="#e45d67" d="M 2794.5,2621.5 C 2866.5,2621.5 2938.5,2621.5 3010.5,2621.5C 2991.71,2643.73 2967.71,2656.23 2938.5,2659C 2914.5,2659.67 2890.5,2659.67 2866.5,2659C 2837.29,2656.23 2813.29,2643.73 2794.5,2621.5 Z"/></g>
<g><path style="opacity:0.98" fill="#e45d67" d="M 3070.5,2621.5 C 3124.17,2621.5 3177.83,2621.5 3231.5,2621.5C 3231.5,2634.17 3231.5,2646.83 3231.5,2659.5C 3202.16,2659.67 3172.83,2659.5 3143.5,2659C 3113.87,2656.52 3089.53,2644.02 3070.5,2621.5 Z"/></g>
<g><path style="opacity:0.964" fill="#5ebc8f" d="M 2096.5,2883.5 C 2077.5,2883.5 2058.5,2883.5 2039.5,2883.5C 2034.19,2880.51 2028.86,2877.51 2023.5,2874.5C 2031.02,2867.82 2038.85,2861.48 2047,2855.5C 2054,2859.83 2061,2864.17 2068,2868.5C 2073.87,2865.23 2079.2,2861.23 2084,2856.5C 2079.14,2850.99 2073.47,2845.99 2067,2841.5C 2057.64,2848.43 2047.47,2853.6 2036.5,2857C 2029.32,2849.65 2021.99,2842.49 2014.5,2835.5C 2022.69,2831.6 2030.86,2827.6 2039,2823.5C 2039.17,2823.17 2039.33,2822.83 2039.5,2822.5C 2035.37,2818.49 2030.71,2815.66 2025.5,2814C 2027.89,2816.92 2027.89,2819.76 2025.5,2822.5C 2010.96,2825.4 1996.62,2829.23 1982.5,2834C 1981.56,2836.38 1981.23,2838.88 1981.5,2841.5C 1994.17,2841.5 2006.83,2841.5 2019.5,2841.5C 2019.5,2849.83 2019.5,2858.17 2019.5,2866.5C 2007.17,2866.5 1994.83,2866.5 1982.5,2866.5C 1982.5,2869.83 1982.5,2873.17 1982.5,2876.5C 1994.5,2876.5 2006.5,2876.5 2018.5,2876.5C 2018.5,2878.83 2018.5,2881.17 2018.5,2883.5C 1995.5,2883.5 1972.5,2883.5 1949.5,2883.5C 1948.14,2857.85 1947.14,2832.18 1946.5,2806.5C 1952.45,2807.78 1958.29,2809.45 1964,2811.5C 1978.55,2806.89 1992.55,2800.89 2006,2793.5C 2011.98,2799.4 2017.98,2805.4 2024,2811.5C 2031.31,2805.69 2038.48,2799.69 2045.5,2793.5C 2052.93,2796.96 2059.76,2801.29 2066,2806.5C 2073.28,2801.55 2080.28,2796.22 2087,2790.5C 2094.6,2795.05 2102.43,2799.22 2110.5,2803C 2113.52,2805.47 2114.19,2808.47 2112.5,2812C 2105.69,2815.24 2099.36,2819.24 2093.5,2824C 2098.71,2828.72 2104.05,2833.22 2109.5,2837.5C 2103.88,2842.99 2098.21,2848.49 2092.5,2854C 2097.83,2857.33 2103.17,2860.67 2108.5,2864C 2111.28,2866.11 2113.28,2868.78 2114.5,2872C 2113.19,2875.66 2110.52,2877.33 2106.5,2877C 2103.01,2879 2099.68,2881.16 2096.5,2883.5 Z"/></g>
<g><path style="opacity:0.969" fill="#5ebc8f" d="M 1870.5,2884.5 C 1858.5,2884.5 1846.5,2884.5 1834.5,2884.5C 1834.99,2882.19 1835.33,2879.86 1835.5,2877.5C 1823.5,2877.5 1811.5,2877.5 1799.5,2877.5C 1799.5,2879.83 1799.5,2882.17 1799.5,2884.5C 1782.17,2884.5 1764.83,2884.5 1747.5,2884.5C 1750.28,2880.45 1752.95,2876.28 1755.5,2872C 1732.17,2871.5 1708.84,2871.33 1685.5,2871.5C 1685.5,2875.83 1685.5,2880.17 1685.5,2884.5C 1673.5,2884.5 1661.5,2884.5 1649.5,2884.5C 1649.5,2880.17 1649.5,2875.83 1649.5,2871.5C 1637.5,2871.5 1625.5,2871.5 1613.5,2871.5C 1613.5,2861.17 1613.5,2850.83 1613.5,2840.5C 1629.17,2840.5 1644.83,2840.5 1660.5,2840.5C 1660.5,2825.5 1660.5,2810.5 1660.5,2795.5C 1672.84,2795.33 1685.17,2795.5 1697.5,2796C 1701.61,2796.43 1703.44,2798.59 1703,2802.5C 1701.67,2804.5 1700.33,2806.5 1699,2808.5C 1698.5,2819.16 1698.33,2829.83 1698.5,2840.5C 1717.5,2840.5 1736.5,2840.5 1755.5,2840.5C 1755.33,2850.51 1755.5,2860.51 1756,2870.5C 1768.49,2845.87 1776.66,2819.87 1780.5,2792.5C 1791.86,2794.47 1803.19,2796.64 1814.5,2799C 1826.4,2801.89 1827.23,2806.39 1817,2812.5C 1814.54,2823.71 1811.37,2834.71 1807.5,2845.5C 1835.49,2846.5 1863.49,2846.83 1891.5,2846.5C 1891.5,2856.83 1891.5,2867.17 1891.5,2877.5C 1884.5,2877.5 1877.5,2877.5 1870.5,2877.5C 1870.5,2879.83 1870.5,2882.17 1870.5,2884.5 Z"/></g>
<g><path style="opacity:0.977" fill="#5ebc8f" d="M 1572.5,2886.5 C 1482.83,2886.5 1393.17,2886.5 1303.5,2886.5C 1303.5,2878.17 1303.5,2869.83 1303.5,2861.5C 1319.17,2861.67 1334.84,2861.5 1350.5,2861C 1345.2,2853.37 1339.54,2846.04 1333.5,2839C 1336.63,2835.93 1340.3,2833.6 1344.5,2832C 1340.79,2831.83 1337.12,2831.33 1333.5,2830.5C 1328.76,2820.68 1323.76,2811.01 1318.5,2801.5C 1319.5,2801.17 1320.5,2800.83 1321.5,2800.5C 1388.5,2805.58 1455.34,2803.92 1522,2795.5C 1533.98,2801.08 1545.14,2808.08 1555.5,2816.5C 1557.22,2819.47 1556.55,2821.64 1553.5,2823C 1541.82,2823.45 1530.15,2824.11 1518.5,2825C 1524.02,2827.92 1529.68,2830.59 1535.5,2833C 1538.48,2835.19 1538.82,2837.52 1536.5,2840C 1534.16,2841.17 1531.82,2842.34 1529.5,2843.5C 1526.08,2849.34 1522.42,2855 1518.5,2860.5C 1536.49,2861.5 1554.49,2861.83 1572.5,2861.5C 1572.5,2869.83 1572.5,2878.17 1572.5,2886.5 Z M 1491.5,2826.5 C 1492.98,2826.24 1494.31,2826.57 1495.5,2827.5C 1490.62,2836.71 1484.95,2845.37 1478.5,2853.5C 1482.83,2856.46 1487.5,2858.96 1492.5,2861C 1476.83,2861.67 1461.17,2861.67 1445.5,2861C 1450.96,2858.44 1456.29,2855.6 1461.5,2852.5C 1456.5,2845.17 1451.5,2837.83 1446.5,2830.5C 1461.6,2828.8 1476.6,2827.47 1491.5,2826.5 Z M 1396.5,2830.5 C 1401.51,2830.33 1406.51,2830.5 1411.5,2831C 1408.29,2832.18 1407.79,2834.01 1410,2836.5C 1416.22,2844.39 1422.05,2852.55 1427.5,2861C 1409.5,2861.67 1391.5,2861.67 1373.5,2861C 1378.22,2859.26 1382.88,2857.43 1387.5,2855.5C 1382.07,2847.24 1376.07,2839.41 1369.5,2832C 1378.68,2831.83 1387.68,2831.33 1396.5,2830.5 Z"/></g>
<g><path style="opacity:0.97" fill="#5ebc8f" d="M 2183.5,2883.5 C 2160.83,2883.5 2138.17,2883.5 2115.5,2883.5C 2115.5,2881.17 2115.5,2878.83 2115.5,2876.5C 2126.83,2876.5 2138.17,2876.5 2149.5,2876.5C 2149.5,2873.17 2149.5,2869.83 2149.5,2866.5C 2138.17,2866.5 2126.83,2866.5 2115.5,2866.5C 2115.5,2858.17 2115.5,2849.83 2115.5,2841.5C 2127.17,2841.5 2138.83,2841.5 2150.5,2841.5C 2150.5,2838.17 2150.5,2834.83 2150.5,2831.5C 2138.5,2831.5 2126.5,2831.5 2114.5,2831.5C 2114.5,2821.83 2114.5,2812.17 2114.5,2802.5C 2138.5,2802.5 2162.5,2802.5 2186.5,2802.5C 2185.2,2829.48 2184.2,2856.48 2183.5,2883.5 Z"/></g>
<g><path style="opacity:0.989" fill="#5bbc90" d="M 1949.5,2883.5 C 1972.5,2883.5 1995.5,2883.5 2018.5,2883.5C 2018.5,2884.5 2018.5,2885.5 2018.5,2886.5C 1995.5,2886.5 1972.5,2886.5 1949.5,2886.5C 1949.5,2885.5 1949.5,2884.5 1949.5,2883.5 Z"/></g>
<g><path style="opacity:0.97" fill="#5bbc90" d="M 2039.5,2883.5 C 2058.5,2883.5 2077.5,2883.5 2096.5,2883.5C 2095.83,2884.83 2094.83,2885.83 2093.5,2886.5C 2076.17,2886.5 2058.83,2886.5 2041.5,2886.5C 2041.22,2885.22 2040.55,2884.22 2039.5,2883.5 Z"/></g>
<g><path style="opacity:0.989" fill="#5bbc90" d="M 2115.5,2883.5 C 2138.17,2883.5 2160.83,2883.5 2183.5,2883.5C 2183.5,2884.5 2183.5,2885.5 2183.5,2886.5C 2160.83,2886.5 2138.17,2886.5 2115.5,2886.5C 2115.5,2885.5 2115.5,2884.5 2115.5,2883.5 Z"/></g>
<g><path style="opacity:0.993" fill="#5bbc90" d="M 1649.5,2884.5 C 1661.5,2884.5 1673.5,2884.5 1685.5,2884.5C 1685.5,2885.5 1685.5,2886.5 1685.5,2887.5C 1673.5,2887.5 1661.5,2887.5 1649.5,2887.5C 1649.5,2886.5 1649.5,2885.5 1649.5,2884.5 Z"/></g>
<g><path style="opacity:0.984" fill="#5bbc90" d="M 1747.5,2884.5 C 1764.83,2884.5 1782.17,2884.5 1799.5,2884.5C 1799.56,2885.61 1799.89,2886.61 1800.5,2887.5C 1782.17,2887.5 1763.83,2887.5 1745.5,2887.5C 1746.17,2886.5 1746.83,2885.5 1747.5,2884.5 Z"/></g>
<g><path style="opacity:0.965" fill="#5bbc90" d="M 1834.5,2884.5 C 1846.5,2884.5 1858.5,2884.5 1870.5,2884.5C 1870.5,2885.5 1870.5,2886.5 1870.5,2887.5C 1858.5,2887.5 1846.5,2887.5 1834.5,2887.5C 1834.5,2886.5 1834.5,2885.5 1834.5,2884.5 Z"/></g>
<g><path style="opacity:0.997" fill="#5cbc90" d="M 1303.5,2886.5 C 1393.17,2886.5 1482.83,2886.5 1572.5,2886.5C 1572.5,2887.17 1572.5,2887.83 1572.5,2888.5C 1482.83,2888.5 1393.17,2888.5 1303.5,2888.5C 1303.5,2887.83 1303.5,2887.17 1303.5,2886.5 Z"/></g>
<g><path style="opacity:0.984" fill="#5abb92" d="M 1949.5,2886.5 C 1972.5,2886.5 1995.5,2886.5 2018.5,2886.5C 2018.5,2889.5 2018.5,2892.5 2018.5,2895.5C 1995.5,2895.5 1972.5,2895.5 1949.5,2895.5C 1949.5,2892.5 1949.5,2889.5 1949.5,2886.5 Z"/></g>
<g><path style="opacity:0.973" fill="#5abb92" d="M 2041.5,2886.5 C 2058.83,2886.5 2076.17,2886.5 2093.5,2886.5C 2097.35,2889.26 2101.02,2892.26 2104.5,2895.5C 2078.17,2895.5 2051.83,2895.5 2025.5,2895.5C 2030.83,2892.5 2036.16,2889.5 2041.5,2886.5 Z"/></g>
<g><path style="opacity:0.986" fill="#5abb92" d="M 2115.5,2886.5 C 2138.17,2886.5 2160.83,2886.5 2183.5,2886.5C 2183.74,2889.61 2183.4,2892.61 2182.5,2895.5C 2160.17,2895.5 2137.83,2895.5 2115.5,2895.5C 2115.5,2892.5 2115.5,2889.5 2115.5,2886.5 Z"/></g>
<g><path style="opacity:0.977" fill="#5abb92" d="M 1649.5,2887.5 C 1661.5,2887.5 1673.5,2887.5 1685.5,2887.5C 1685.5,2890.17 1685.5,2892.83 1685.5,2895.5C 1673.17,2895.5 1660.83,2895.5 1648.5,2895.5C 1648.4,2892.76 1648.73,2890.1 1649.5,2887.5 Z"/></g>
<g><path style="opacity:0.982" fill="#5abb92" d="M 1745.5,2887.5 C 1763.83,2887.5 1782.17,2887.5 1800.5,2887.5C 1800.28,2890.28 1800.61,2892.95 1801.5,2895.5C 1780.83,2895.5 1760.17,2895.5 1739.5,2895.5C 1741.12,2892.55 1743.12,2889.88 1745.5,2887.5 Z"/></g>
<g><path style="opacity:0.967" fill="#5abb92" d="M 1834.5,2887.5 C 1846.5,2887.5 1858.5,2887.5 1870.5,2887.5C 1870.72,2890.28 1870.39,2892.95 1869.5,2895.5C 1857.83,2895.5 1846.17,2895.5 1834.5,2895.5C 1834.5,2892.83 1834.5,2890.17 1834.5,2887.5 Z"/></g>
<g><path style="opacity:0.876" fill="#5abb92" d="M 1303.5,2888.5 C 1393.17,2888.5 1482.83,2888.5 1572.5,2888.5C 1572.5,2891.5 1572.5,2894.5 1572.5,2897.5C 1560.17,2897.5 1547.83,2897.5 1535.5,2897.5C 1535.5,2895.17 1535.5,2892.83 1535.5,2890.5C 1509.83,2890.33 1484.16,2890.5 1458.5,2891C 1460.71,2893.04 1462.71,2895.2 1464.5,2897.5C 1451.5,2897.5 1438.5,2897.5 1425.5,2897.5C 1424.22,2896.61 1424.22,2895.61 1425.5,2894.5C 1427.17,2893.33 1428.83,2892.17 1430.5,2891C 1400.17,2890.5 1369.84,2890.33 1339.5,2890.5C 1339.5,2892.83 1339.5,2895.17 1339.5,2897.5C 1327.5,2897.5 1315.5,2897.5 1303.5,2897.5C 1303.5,2894.5 1303.5,2891.5 1303.5,2888.5 Z"/></g>
<g><path style="opacity:0.848" fill="#59bb92" d="M 1415.5,2897.5 C 1402.17,2897.5 1388.83,2897.5 1375.5,2897.5C 1381.46,2896.17 1387.8,2895.5 1394.5,2895.5C 1400.83,2895.67 1407.17,2895.83 1413.5,2896C 1414.42,2896.28 1415.08,2896.78 1415.5,2897.5 Z"/></g>
<g><path style="opacity:0.97" fill="#56ba94" d="M 1648.5,2895.5 C 1660.83,2895.5 1673.17,2895.5 1685.5,2895.5C 1685.5,2897.83 1685.5,2900.17 1685.5,2902.5C 1673.17,2902.5 1660.83,2902.5 1648.5,2902.5C 1648.5,2900.17 1648.5,2897.83 1648.5,2895.5 Z"/></g>
<g><path style="opacity:0.982" fill="#56ba94" d="M 1739.5,2895.5 C 1760.17,2895.5 1780.83,2895.5 1801.5,2895.5C 1801.5,2897.83 1801.5,2900.17 1801.5,2902.5C 1778.5,2902.5 1755.5,2902.5 1732.5,2902.5C 1734.5,2899.83 1736.83,2897.5 1739.5,2895.5 Z"/></g>
<g><path style="opacity:0.988" fill="#56ba94" d="M 1834.5,2895.5 C 1846.17,2895.5 1857.83,2895.5 1869.5,2895.5C 1869.5,2897.83 1869.5,2900.17 1869.5,2902.5C 1857.5,2902.5 1845.5,2902.5 1833.5,2902.5C 1834.37,2900.28 1834.7,2897.95 1834.5,2895.5 Z"/></g>
<g><path style="opacity:0.981" fill="#56ba94" d="M 1949.5,2895.5 C 1972.5,2895.5 1995.5,2895.5 2018.5,2895.5C 2018.37,2896.38 2018.7,2897.04 2019.5,2897.5C 2021.32,2896.25 2023.32,2895.59 2025.5,2895.5C 2051.83,2895.5 2078.17,2895.5 2104.5,2895.5C 2106.23,2896.12 2107.73,2897.12 2109,2898.5C 2109.58,2900 2109.08,2901 2107.5,2901.5C 2078.83,2901.5 2050.17,2901.5 2021.5,2901.5C 2020.54,2901.05 2019.71,2900.38 2019,2899.5C 2007.42,2901.47 1995.59,2902.13 1983.5,2901.5C 1972.5,2901.5 1961.5,2901.5 1950.5,2901.5C 1950.17,2899.5 1949.83,2897.5 1949.5,2895.5 Z"/></g>
<g><path style="opacity:0.954" fill="#56ba94" d="M 2115.5,2895.5 C 2137.83,2895.5 2160.17,2895.5 2182.5,2895.5C 2182.5,2897.5 2182.5,2899.5 2182.5,2901.5C 2171.17,2901.5 2159.83,2901.5 2148.5,2901.5C 2137.5,2901.5 2126.5,2901.5 2115.5,2901.5C 2115.5,2899.5 2115.5,2897.5 2115.5,2895.5 Z"/></g>
<g><path style="opacity:0.972" fill="#56ba94" d="M 1303.5,2897.5 C 1315.5,2897.5 1327.5,2897.5 1339.5,2897.5C 1339.5,2899.5 1339.5,2901.5 1339.5,2903.5C 1327.5,2903.5 1315.5,2903.5 1303.5,2903.5C 1303.5,2901.5 1303.5,2899.5 1303.5,2897.5 Z"/></g>
<g><path style="opacity:0.991" fill="#56ba94" d="M 1375.5,2897.5 C 1388.83,2897.5 1402.17,2897.5 1415.5,2897.5C 1416.14,2898.1 1416.47,2898.93 1416.5,2900C 1416.61,2901.7 1415.95,2902.87 1414.5,2903.5C 1401.5,2903.5 1388.5,2903.5 1375.5,2903.5C 1375.5,2901.5 1375.5,2899.5 1375.5,2897.5 Z"/></g>
<g><path style="opacity:0.959" fill="#56ba94" d="M 1425.5,2897.5 C 1438.5,2897.5 1451.5,2897.5 1464.5,2897.5C 1466.91,2898.91 1468.58,2900.91 1469.5,2903.5C 1457.17,2903.5 1444.83,2903.5 1432.5,2903.5C 1430.14,2901.47 1427.81,2899.47 1425.5,2897.5 Z"/></g>
<g><path style="opacity:0.962" fill="#55ba94" d="M 1535.5,2897.5 C 1547.83,2897.5 1560.17,2897.5 1572.5,2897.5C 1572.5,2899.5 1572.5,2901.5 1572.5,2903.5C 1556.5,2903.5 1540.5,2903.5 1524.5,2903.5C 1528.17,2901.5 1531.83,2899.5 1535.5,2897.5 Z"/></g>
<g><path style="opacity:0.985" fill="#54b995" d="M 1950.5,2901.5 C 1961.5,2901.5 1972.5,2901.5 1983.5,2901.5C 1983.5,2902.5 1983.5,2903.5 1983.5,2904.5C 1972.5,2904.5 1961.5,2904.5 1950.5,2904.5C 1950.5,2903.5 1950.5,2902.5 1950.5,2901.5 Z"/></g>
<g><path style="opacity:0.979" fill="#54b995" d="M 2021.5,2901.5 C 2050.17,2901.5 2078.83,2901.5 2107.5,2901.5C 2106.83,2902.83 2105.83,2903.83 2104.5,2904.5C 2092.17,2904.5 2079.83,2904.5 2067.5,2904.5C 2067.17,2904.5 2066.83,2904.5 2066.5,2904.5C 2052.5,2904.5 2038.5,2904.5 2024.5,2904.5C 2023.17,2903.83 2022.17,2902.83 2021.5,2901.5 Z"/></g>
<g><path style="opacity:0.971" fill="#54b995" d="M 2148.5,2901.5 C 2159.83,2901.5 2171.17,2901.5 2182.5,2901.5C 2182.5,2902.5 2182.5,2903.5 2182.5,2904.5C 2171.17,2904.5 2159.83,2904.5 2148.5,2904.5C 2148.5,2903.5 2148.5,2902.5 2148.5,2901.5 Z"/></g>
<g><path style="opacity:0.973" fill="#54b995" d="M 1648.5,2902.5 C 1660.83,2902.5 1673.17,2902.5 1685.5,2902.5C 1685.5,2903.5 1685.5,2904.5 1685.5,2905.5C 1673.17,2905.5 1660.83,2905.5 1648.5,2905.5C 1648.5,2904.5 1648.5,2903.5 1648.5,2902.5 Z"/></g>
<g><path style="opacity:0.984" fill="#54b995" d="M 1732.5,2902.5 C 1755.5,2902.5 1778.5,2902.5 1801.5,2902.5C 1802.4,2903.21 1802.74,2904.21 1802.5,2905.5C 1779.17,2905.5 1755.83,2905.5 1732.5,2905.5C 1731.38,2904.35 1731.38,2903.35 1732.5,2902.5 Z"/></g>
<g><path style="opacity:0.965" fill="#54b995" d="M 1833.5,2902.5 C 1845.5,2902.5 1857.5,2902.5 1869.5,2902.5C 1869.5,2903.5 1869.5,2904.5 1869.5,2905.5C 1857.5,2905.5 1845.5,2905.5 1833.5,2905.5C 1833.5,2904.5 1833.5,2903.5 1833.5,2902.5 Z"/></g>
<g><path style="opacity:0.972" fill="#54b995" d="M 1303.5,2903.5 C 1315.5,2903.5 1327.5,2903.5 1339.5,2903.5C 1339.5,2904.5 1339.5,2905.5 1339.5,2906.5C 1327.5,2906.5 1315.5,2906.5 1303.5,2906.5C 1303.5,2905.5 1303.5,2904.5 1303.5,2903.5 Z"/></g>
<g><path style="opacity:0.982" fill="#54b995" d="M 1375.5,2903.5 C 1388.5,2903.5 1401.5,2903.5 1414.5,2903.5C 1414.19,2905.14 1413.19,2906.14 1411.5,2906.5C 1399.5,2906.5 1387.5,2906.5 1375.5,2906.5C 1375.5,2905.5 1375.5,2904.5 1375.5,2903.5 Z"/></g>
<g><path style="opacity:0.98" fill="#54b995" d="M 1432.5,2903.5 C 1444.83,2903.5 1457.17,2903.5 1469.5,2903.5C 1470.83,2904.17 1471.83,2905.17 1472.5,2906.5C 1460.17,2906.5 1447.83,2906.5 1435.5,2906.5C 1434.17,2905.83 1433.17,2904.83 1432.5,2903.5 Z"/></g>
<g><path style="opacity:0.969" fill="#54b995" d="M 1524.5,2903.5 C 1540.5,2903.5 1556.5,2903.5 1572.5,2903.5C 1572.5,2904.5 1572.5,2905.5 1572.5,2906.5C 1554.17,2906.5 1535.83,2906.5 1517.5,2906.5C 1519.43,2904.71 1521.76,2903.71 1524.5,2903.5 Z"/></g>
<g><path style="opacity:0.979" fill="#52b996" d="M 1950.5,2904.5 C 1961.5,2904.5 1972.5,2904.5 1983.5,2904.5C 1983.5,2906.17 1983.5,2907.83 1983.5,2909.5C 1972.5,2909.5 1961.5,2909.5 1950.5,2909.5C 1950.5,2907.83 1950.5,2906.17 1950.5,2904.5 Z"/></g>
<g><path style="opacity:0.942" fill="#52b996" d="M 2024.5,2904.5 C 2038.5,2904.5 2052.5,2904.5 2066.5,2904.5C 2064.37,2906.95 2061.7,2908.62 2058.5,2909.5C 2048.83,2909.5 2039.17,2909.5 2029.5,2909.5C 2027.5,2908.17 2025.83,2906.5 2024.5,2904.5 Z"/></g>
<g><path style="opacity:0.939" fill="#52b996" d="M 2067.5,2904.5 C 2079.83,2904.5 2092.17,2904.5 2104.5,2904.5C 2103.09,2906.91 2101.09,2908.58 2098.5,2909.5C 2090.5,2909.5 2082.5,2909.5 2074.5,2909.5C 2071.86,2908.19 2069.53,2906.52 2067.5,2904.5 Z"/></g>
<g><path style="opacity:0.974" fill="#52b996" d="M 2148.5,2904.5 C 2159.83,2904.5 2171.17,2904.5 2182.5,2904.5C 2182.5,2906.17 2182.5,2907.83 2182.5,2909.5C 2171.17,2909.5 2159.83,2909.5 2148.5,2909.5C 2148.5,2907.83 2148.5,2906.17 2148.5,2904.5 Z"/></g>
<g><path style="opacity:0.995" fill="#52b996" d="M 1648.5,2905.5 C 1660.83,2905.5 1673.17,2905.5 1685.5,2905.5C 1701.17,2905.5 1716.83,2905.5 1732.5,2905.5C 1755.83,2905.5 1779.17,2905.5 1802.5,2905.5C 1802.63,2907.22 1802.96,2908.88 1803.5,2910.5C 1751.83,2910.5 1700.17,2910.5 1648.5,2910.5C 1648.5,2908.83 1648.5,2907.17 1648.5,2905.5 Z"/></g>
<g><path style="opacity:0.978" fill="#52b996" d="M 1833.5,2905.5 C 1845.5,2905.5 1857.5,2905.5 1869.5,2905.5C 1869.37,2907.22 1869.04,2908.88 1868.5,2910.5C 1856.83,2910.5 1845.17,2910.5 1833.5,2910.5C 1833.5,2908.83 1833.5,2907.17 1833.5,2905.5 Z"/></g>
<g><path style="opacity:0.944" fill="#52b996" d="M 1303.5,2906.5 C 1315.5,2906.5 1327.5,2906.5 1339.5,2906.5C 1345.3,2908.03 1350.96,2909.7 1356.5,2911.5C 1338.83,2911.5 1321.17,2911.5 1303.5,2911.5C 1303.5,2909.83 1303.5,2908.17 1303.5,2906.5 Z"/></g>
<g><path style="opacity:1" fill="#52b996" d="M 1375.5,2906.5 C 1387.5,2906.5 1399.5,2906.5 1411.5,2906.5C 1411.5,2908.17 1411.5,2909.83 1411.5,2911.5C 1399.5,2911.5 1387.5,2911.5 1375.5,2911.5C 1375.5,2909.83 1375.5,2908.17 1375.5,2906.5 Z"/></g>
<g><path style="opacity:0.962" fill="#52b996" d="M 1435.5,2906.5 C 1447.83,2906.5 1460.17,2906.5 1472.5,2906.5C 1471.46,2908.49 1469.46,2910.16 1466.5,2911.5C 1457.5,2911.5 1448.5,2911.5 1439.5,2911.5C 1438.17,2909.83 1436.83,2908.17 1435.5,2906.5 Z"/></g>
<g><path style="opacity:0.981" fill="#52b996" d="M 1517.5,2906.5 C 1535.83,2906.5 1554.17,2906.5 1572.5,2906.5C 1572.5,2908.17 1572.5,2909.83 1572.5,2911.5C 1551.17,2911.5 1529.83,2911.5 1508.5,2911.5C 1510.66,2908.58 1513.66,2906.91 1517.5,2906.5 Z"/></g>
<g><path style="opacity:0.984" fill="#4db798" d="M 1950.5,2909.5 C 1961.5,2909.5 1972.5,2909.5 1983.5,2909.5C 1990.97,2910.83 1998.8,2911.5 2007,2911.5C 2014.83,2911.33 2022.67,2911.17 2030.5,2911C 2029.94,2910.62 2029.61,2910.12 2029.5,2909.5C 2039.17,2909.5 2048.83,2909.5 2058.5,2909.5C 2058.08,2910.22 2057.42,2910.72 2056.5,2911C 2062.83,2911.67 2069.17,2911.67 2075.5,2911C 2074.94,2910.62 2074.61,2910.12 2074.5,2909.5C 2082.5,2909.5 2090.5,2909.5 2098.5,2909.5C 2098.39,2910.12 2098.06,2910.62 2097.5,2911C 2106,2911.17 2114.5,2911.33 2123,2911.5C 2131.86,2911.5 2140.36,2910.83 2148.5,2909.5C 2159.83,2909.5 2171.17,2909.5 2182.5,2909.5C 2188.75,2911.46 2195.42,2912.13 2202.5,2911.5C 2202.5,2915.5 2202.5,2919.5 2202.5,2923.5C 2111.17,2923.5 2019.83,2923.5 1928.5,2923.5C 1928.5,2919.5 1928.5,2915.5 1928.5,2911.5C 1936.24,2912.13 1943.58,2911.46 1950.5,2909.5 Z"/></g>
<g><path style="opacity:0.99" fill="#4eb898" d="M 1648.5,2910.5 C 1700.17,2910.5 1751.83,2910.5 1803.5,2910.5C 1803.96,2913.48 1804.3,2916.48 1804.5,2919.5C 1785.5,2919.5 1766.5,2919.5 1747.5,2919.5C 1745.54,2918.04 1743.7,2916.37 1742,2914.5C 1741.51,2916.13 1741.34,2917.8 1741.5,2919.5C 1710.17,2919.5 1678.83,2919.5 1647.5,2919.5C 1647.96,2916.52 1648.3,2913.52 1648.5,2910.5 Z"/></g>
<g><path style="opacity:0.976" fill="#4eb898" d="M 1833.5,2910.5 C 1845.17,2910.5 1856.83,2910.5 1868.5,2910.5C 1868.63,2913.57 1868.3,2916.57 1867.5,2919.5C 1855.5,2919.5 1843.5,2919.5 1831.5,2919.5C 1832.17,2916.5 1832.83,2913.5 1833.5,2910.5 Z"/></g>
<g><path style="opacity:0.95" fill="#4eb898" d="M 1303.5,2911.5 C 1321.17,2911.5 1338.83,2911.5 1356.5,2911.5C 1360.15,2911.66 1362.82,2913.32 1364.5,2916.5C 1364.03,2918.81 1362.7,2920.14 1360.5,2920.5C 1350.17,2920.5 1339.83,2920.5 1329.5,2920.5C 1321.02,2919.51 1312.35,2919.17 1303.5,2919.5C 1303.5,2916.83 1303.5,2914.17 1303.5,2911.5 Z"/></g>
<g><path style="opacity:1" fill="#4eb898" d="M 1375.5,2911.5 C 1387.5,2911.5 1399.5,2911.5 1411.5,2911.5C 1411.5,2914.5 1411.5,2917.5 1411.5,2920.5C 1399.5,2920.5 1387.5,2920.5 1375.5,2920.5C 1375.5,2917.5 1375.5,2914.5 1375.5,2911.5 Z"/></g>
<g><path style="opacity:0.889" fill="#4eb897" d="M 1439.5,2911.5 C 1448.5,2911.5 1457.5,2911.5 1466.5,2911.5C 1461.58,2915.64 1456.25,2919.3 1450.5,2922.5C 1446.48,2919.15 1442.81,2915.48 1439.5,2911.5 Z"/></g>
<g><path style="opacity:0.94" fill="#4eb898" d="M 1508.5,2911.5 C 1529.83,2911.5 1551.17,2911.5 1572.5,2911.5C 1572.5,2913.5 1572.5,2915.5 1572.5,2917.5C 1564.47,2917.17 1556.47,2917.5 1548.5,2918.5C 1548.86,2919.18 1549.2,2919.85 1549.5,2920.5C 1538.17,2920.5 1526.83,2920.5 1515.5,2920.5C 1512.94,2917.72 1510.6,2914.72 1508.5,2911.5 Z"/></g>
<g><path style="opacity:0.807" fill="#4db798" d="M 1493.5,2920.5 C 1487.83,2920.5 1482.17,2920.5 1476.5,2920.5C 1476.93,2917.76 1478.09,2915.42 1480,2913.5C 1484.78,2915.47 1489.28,2917.81 1493.5,2920.5 Z"/></g>
<g><path style="opacity:0.991" fill="#4ab799" d="M 1647.5,2919.5 C 1678.83,2919.5 1710.17,2919.5 1741.5,2919.5C 1741.5,2921.17 1741.5,2922.83 1741.5,2924.5C 1710.17,2924.5 1678.83,2924.5 1647.5,2924.5C 1647.5,2922.83 1647.5,2921.17 1647.5,2919.5 Z"/></g>
<g><path style="opacity:0.952" fill="#4ab799" d="M 1747.5,2919.5 C 1766.5,2919.5 1785.5,2919.5 1804.5,2919.5C 1805.45,2920.92 1805.78,2922.59 1805.5,2924.5C 1793.17,2924.5 1780.83,2924.5 1768.5,2924.5C 1767.44,2920.83 1766.11,2920.83 1764.5,2924.5C 1760.5,2924.5 1756.5,2924.5 1752.5,2924.5C 1750.5,2923.17 1748.83,2921.5 1747.5,2919.5 Z"/></g>
<g><path style="opacity:0.976" fill="#4ab799" d="M 1831.5,2919.5 C 1843.5,2919.5 1855.5,2919.5 1867.5,2919.5C 1867.5,2921.17 1867.5,2922.83 1867.5,2924.5C 1855.5,2924.5 1843.5,2924.5 1831.5,2924.5C 1831.5,2922.83 1831.5,2921.17 1831.5,2919.5 Z"/></g>
<g><path style="opacity:0.958" fill="#4ab799" d="M 1329.5,2920.5 C 1339.83,2920.5 1350.17,2920.5 1360.5,2920.5C 1359.4,2921.6 1358.73,2922.94 1358.5,2924.5C 1348.17,2924.5 1337.83,2924.5 1327.5,2924.5C 1327.66,2922.85 1328.33,2921.51 1329.5,2920.5 Z"/></g>
<g><path style="opacity:1" fill="#4ab799" d="M 1375.5,2920.5 C 1387.5,2920.5 1399.5,2920.5 1411.5,2920.5C 1411.5,2921.83 1411.5,2923.17 1411.5,2924.5C 1399.5,2924.5 1387.5,2924.5 1375.5,2924.5C 1375.5,2923.17 1375.5,2921.83 1375.5,2920.5 Z"/></g>
<g><path style="opacity:0.93" fill="#4ab799" d="M 1476.5,2920.5 C 1482.17,2920.5 1487.83,2920.5 1493.5,2920.5C 1497.14,2921.26 1500.47,2922.6 1503.5,2924.5C 1494.17,2924.5 1484.83,2924.5 1475.5,2924.5C 1475.83,2923.17 1476.17,2921.83 1476.5,2920.5 Z"/></g>
<g><path style="opacity:0.964" fill="#4ab799" d="M 1515.5,2920.5 C 1526.83,2920.5 1538.17,2920.5 1549.5,2920.5C 1550.49,2921.8 1551.49,2923.13 1552.5,2924.5C 1540.83,2924.5 1529.17,2924.5 1517.5,2924.5C 1516.4,2923.4 1515.73,2922.06 1515.5,2920.5 Z"/></g>
<g><path style="opacity:0.998" fill="#47b69b" d="M 1928.5,2923.5 C 2019.83,2923.5 2111.17,2923.5 2202.5,2923.5C 2202.5,2926.5 2202.5,2929.5 2202.5,2932.5C 2111.17,2932.5 2019.83,2932.5 1928.5,2932.5C 1928.5,2929.5 1928.5,2926.5 1928.5,2923.5 Z"/></g>
<g><path style="opacity:0.966" fill="#47b69b" d="M 1327.5,2924.5 C 1337.83,2924.5 1348.17,2924.5 1358.5,2924.5C 1357.49,2927.25 1356.49,2929.92 1355.5,2932.5C 1344.83,2932.5 1334.17,2932.5 1323.5,2932.5C 1324.83,2929.83 1326.17,2927.17 1327.5,2924.5 Z"/></g>
<g><path style="opacity:0.99" fill="#47b69b" d="M 1375.5,2924.5 C 1387.5,2924.5 1399.5,2924.5 1411.5,2924.5C 1411.39,2927.61 1412.39,2930.28 1414.5,2932.5C 1401.5,2932.5 1388.5,2932.5 1375.5,2932.5C 1375.5,2929.83 1375.5,2927.17 1375.5,2924.5 Z"/></g>
<g><path style="opacity:0.962" fill="#47b69b" d="M 1475.5,2924.5 C 1484.83,2924.5 1494.17,2924.5 1503.5,2924.5C 1506.5,2925.17 1509.5,2925.83 1512.5,2926.5C 1512.41,2928.79 1511.74,2930.79 1510.5,2932.5C 1496.5,2932.5 1482.5,2932.5 1468.5,2932.5C 1471.55,2930.45 1473.88,2927.78 1475.5,2924.5 Z"/></g>
<g><path style="opacity:0.966" fill="#47b69b" d="M 1517.5,2924.5 C 1529.17,2924.5 1540.83,2924.5 1552.5,2924.5C 1554.17,2927.17 1555.83,2929.83 1557.5,2932.5C 1545.83,2932.5 1534.17,2932.5 1522.5,2932.5C 1520.83,2929.83 1519.17,2927.17 1517.5,2924.5 Z"/></g>
<g><path style="opacity:0.989" fill="#46b69b" d="M 1647.5,2924.5 C 1678.83,2924.5 1710.17,2924.5 1741.5,2924.5C 1741.5,2927.5 1741.5,2930.5 1741.5,2933.5C 1709.83,2933.5 1678.17,2933.5 1646.5,2933.5C 1646.7,2930.48 1647.04,2927.48 1647.5,2924.5 Z"/></g>
<g><path style="opacity:0.779" fill="#47b69b" d="M 1752.5,2924.5 C 1756.5,2924.5 1760.5,2924.5 1764.5,2924.5C 1762.85,2926.81 1760.85,2928.81 1758.5,2930.5C 1756.15,2928.81 1754.15,2926.81 1752.5,2924.5 Z"/></g>
<g><path style="opacity:0.973" fill="#46b69b" d="M 1768.5,2924.5 C 1780.83,2924.5 1793.17,2924.5 1805.5,2924.5C 1806.66,2927.27 1807.32,2930.27 1807.5,2933.5C 1795.17,2933.5 1782.83,2933.5 1770.5,2933.5C 1769.34,2930.73 1768.68,2927.73 1768.5,2924.5 Z"/></g>
<g><path style="opacity:0.971" fill="#46b69b" d="M 1831.5,2924.5 C 1843.5,2924.5 1855.5,2924.5 1867.5,2924.5C 1866.73,2927.45 1866.06,2930.45 1865.5,2933.5C 1853.5,2933.5 1841.5,2933.5 1829.5,2933.5C 1829.68,2930.27 1830.34,2927.27 1831.5,2924.5 Z"/></g>
<g><path style="opacity:0.982" fill="#46b79c" d="M 1323.5,2932.5 C 1334.17,2932.5 1344.83,2932.5 1355.5,2932.5C 1355.5,2933.17 1355.5,2933.83 1355.5,2934.5C 1344.83,2934.5 1334.17,2934.5 1323.5,2934.5C 1323.5,2933.83 1323.5,2933.17 1323.5,2932.5 Z"/></g>
<g><path style="opacity:0.935" fill="#46b79c" d="M 1375.5,2932.5 C 1388.5,2932.5 1401.5,2932.5 1414.5,2932.5C 1432.5,2933.83 1450.5,2933.83 1468.5,2932.5C 1482.5,2932.5 1496.5,2932.5 1510.5,2932.5C 1510.5,2933.17 1510.5,2933.83 1510.5,2934.5C 1465.5,2934.5 1420.5,2934.5 1375.5,2934.5C 1375.5,2933.83 1375.5,2933.17 1375.5,2932.5 Z"/></g>
<g><path style="opacity:0.964" fill="#46b79c" d="M 1522.5,2932.5 C 1534.17,2932.5 1545.83,2932.5 1557.5,2932.5C 1557.83,2933.17 1558.17,2933.83 1558.5,2934.5C 1547.17,2934.5 1535.83,2934.5 1524.5,2934.5C 1523.5,2934.17 1522.83,2933.5 1522.5,2932.5 Z"/></g>
<g><path style="opacity:0.998" fill="#43b69d" d="M 1928.5,2932.5 C 2019.83,2932.5 2111.17,2932.5 2202.5,2932.5C 2202.5,2934.17 2202.5,2935.83 2202.5,2937.5C 2111.17,2937.5 2019.83,2937.5 1928.5,2937.5C 1928.5,2935.83 1928.5,2934.17 1928.5,2932.5 Z"/></g>
<g><path style="opacity:0.947" fill="#43b59d" d="M 1646.5,2933.5 C 1678.17,2933.5 1709.83,2933.5 1741.5,2933.5C 1740.77,2934.71 1740.43,2936.04 1740.5,2937.5C 1728.5,2937.5 1716.5,2937.5 1704.5,2937.5C 1697.17,2936.17 1689.83,2936.17 1682.5,2937.5C 1670.5,2937.5 1658.5,2937.5 1646.5,2937.5C 1646.5,2936.17 1646.5,2934.83 1646.5,2933.5 Z"/></g>
<g><path style="opacity:0.972" fill="#43b59d" d="M 1770.5,2933.5 C 1782.83,2933.5 1795.17,2933.5 1807.5,2933.5C 1808.43,2934.57 1808.77,2935.9 1808.5,2937.5C 1796.17,2937.5 1783.83,2937.5 1771.5,2937.5C 1770.57,2936.43 1770.23,2935.1 1770.5,2933.5 Z"/></g>
<g><path style="opacity:0.969" fill="#43b59d" d="M 1829.5,2933.5 C 1841.5,2933.5 1853.5,2933.5 1865.5,2933.5C 1865.77,2935.1 1865.43,2936.43 1864.5,2937.5C 1852.5,2937.5 1840.5,2937.5 1828.5,2937.5C 1828.43,2936.04 1828.77,2934.71 1829.5,2933.5 Z"/></g>
<g><path style="opacity:0.973" fill="#43b59d" d="M 1323.5,2934.5 C 1334.17,2934.5 1344.83,2934.5 1355.5,2934.5C 1355.01,2936 1354.34,2937.33 1353.5,2938.5C 1342.83,2938.5 1332.17,2938.5 1321.5,2938.5C 1321.66,2936.85 1322.33,2935.51 1323.5,2934.5 Z"/></g>
<g><path style="opacity:0.995" fill="#43b59d" d="M 1375.5,2934.5 C 1420.5,2934.5 1465.5,2934.5 1510.5,2934.5C 1510.34,2936.15 1509.67,2937.49 1508.5,2938.5C 1464.17,2938.5 1419.83,2938.5 1375.5,2938.5C 1375.5,2937.17 1375.5,2935.83 1375.5,2934.5 Z"/></g>
<g><path style="opacity:0.964" fill="#43b59d" d="M 1524.5,2934.5 C 1535.83,2934.5 1547.17,2934.5 1558.5,2934.5C 1559.67,2935.51 1560.34,2936.85 1560.5,2938.5C 1549.17,2938.5 1537.83,2938.5 1526.5,2938.5C 1525.33,2937.49 1524.66,2936.15 1524.5,2934.5 Z"/></g>
<g><path style="opacity:0.907" fill="#41b59e" d="M 1928.5,2937.5 C 2019.83,2937.5 2111.17,2937.5 2202.5,2937.5C 2202.5,2939.17 2202.5,2940.83 2202.5,2942.5C 2190.17,2942.5 2177.83,2942.5 2165.5,2942.5C 2165.5,2941.5 2165.5,2940.5 2165.5,2939.5C 2098.83,2939.5 2032.17,2939.5 1965.5,2939.5C 1965.5,2940.5 1965.5,2941.5 1965.5,2942.5C 1953.17,2942.5 1940.83,2942.5 1928.5,2942.5C 1928.5,2940.83 1928.5,2939.17 1928.5,2937.5 Z"/></g>
<g><path style="opacity:0.998" fill="#41b59d" d="M 1375.5,2938.5 C 1419.83,2938.5 1464.17,2938.5 1508.5,2938.5C 1508.5,2939.17 1508.5,2939.83 1508.5,2940.5C 1464.17,2940.5 1419.83,2940.5 1375.5,2940.5C 1375.5,2939.83 1375.5,2939.17 1375.5,2938.5 Z"/></g>
<g><path style="opacity:0.97" fill="#41b59e" d="M 1321.5,2938.5 C 1332.17,2938.5 1342.83,2938.5 1353.5,2938.5C 1353.37,2940.22 1353.04,2941.88 1352.5,2943.5C 1341.17,2943.5 1329.83,2943.5 1318.5,2943.5C 1318.75,2941.33 1319.75,2939.66 1321.5,2938.5 Z"/></g>
<g><path style="opacity:0.995" fill="#41b69e" d="M 1375.5,2940.5 C 1419.83,2940.5 1464.17,2940.5 1508.5,2940.5C 1508.07,2941.71 1507.4,2942.71 1506.5,2943.5C 1462.83,2943.5 1419.17,2943.5 1375.5,2943.5C 1375.5,2942.5 1375.5,2941.5 1375.5,2940.5 Z"/></g>
<g><path style="opacity:0.965" fill="#41b59e" d="M 1526.5,2938.5 C 1537.83,2938.5 1549.17,2938.5 1560.5,2938.5C 1562.25,2939.66 1563.25,2941.33 1563.5,2943.5C 1552.17,2943.5 1540.83,2943.5 1529.5,2943.5C 1528.26,2942.04 1527.26,2940.37 1526.5,2938.5 Z"/></g>
<g><path style="opacity:0.966" fill="#41b59e" d="M 1646.5,2937.5 C 1658.5,2937.5 1670.5,2937.5 1682.5,2937.5C 1682.5,2939.17 1682.5,2940.83 1682.5,2942.5C 1670.17,2942.5 1657.83,2942.5 1645.5,2942.5C 1645.37,2940.71 1645.7,2939.04 1646.5,2937.5 Z"/></g>
<g><path style="opacity:0.974" fill="#41b59e" d="M 1704.5,2937.5 C 1716.5,2937.5 1728.5,2937.5 1740.5,2937.5C 1740.5,2939.17 1740.5,2940.83 1740.5,2942.5C 1728.17,2942.5 1715.83,2942.5 1703.5,2942.5C 1703.63,2940.78 1703.96,2939.12 1704.5,2937.5 Z"/></g>
<g><path style="opacity:0.975" fill="#41b59e" d="M 1771.5,2937.5 C 1783.83,2937.5 1796.17,2937.5 1808.5,2937.5C 1809.3,2939.04 1809.63,2940.71 1809.5,2942.5C 1797.17,2942.5 1784.83,2942.5 1772.5,2942.5C 1771.55,2941.08 1771.22,2939.41 1771.5,2937.5 Z"/></g>
<g><path style="opacity:0.972" fill="#41b59e" d="M 1828.5,2937.5 C 1840.5,2937.5 1852.5,2937.5 1864.5,2937.5C 1864.78,2939.41 1864.45,2941.08 1863.5,2942.5C 1851.5,2942.5 1839.5,2942.5 1827.5,2942.5C 1827.37,2940.71 1827.7,2939.04 1828.5,2937.5 Z"/></g>
<g><path style="opacity:0.994" fill="#3eb49f" d="M 1645.5,2942.5 C 1657.83,2942.5 1670.17,2942.5 1682.5,2942.5C 1681.89,2943.39 1681.56,2944.39 1681.5,2945.5C 1669.5,2945.5 1657.5,2945.5 1645.5,2945.5C 1645.5,2944.5 1645.5,2943.5 1645.5,2942.5 Z"/></g>
<g><path style="opacity:0.973" fill="#3eb49f" d="M 1703.5,2942.5 C 1715.83,2942.5 1728.17,2942.5 1740.5,2942.5C 1740.5,2943.5 1740.5,2944.5 1740.5,2945.5C 1728.17,2945.5 1715.83,2945.5 1703.5,2945.5C 1703.5,2944.5 1703.5,2943.5 1703.5,2942.5 Z"/></g>
<g><path style="opacity:0.977" fill="#3eb49f" d="M 1772.5,2942.5 C 1784.83,2942.5 1797.17,2942.5 1809.5,2942.5C 1810.4,2943.21 1810.74,2944.21 1810.5,2945.5C 1797.83,2945.5 1785.17,2945.5 1772.5,2945.5C 1772.5,2944.5 1772.5,2943.5 1772.5,2942.5 Z"/></g>
<g><path style="opacity:0.979" fill="#3eb49f" d="M 1827.5,2942.5 C 1839.5,2942.5 1851.5,2942.5 1863.5,2942.5C 1863.5,2943.5 1863.5,2944.5 1863.5,2945.5C 1851.17,2945.5 1838.83,2945.5 1826.5,2945.5C 1826.26,2944.21 1826.6,2943.21 1827.5,2942.5 Z"/></g>
<g><path style="opacity:0.966" fill="#3eb49f" d="M 1928.5,2942.5 C 1940.83,2942.5 1953.17,2942.5 1965.5,2942.5C 1965.5,2943.5 1965.5,2944.5 1965.5,2945.5C 1953.17,2945.5 1940.83,2945.5 1928.5,2945.5C 1928.5,2944.5 1928.5,2943.5 1928.5,2942.5 Z"/></g>
<g><path style="opacity:0.987" fill="#3eb49f" d="M 2165.5,2942.5 C 2177.83,2942.5 2190.17,2942.5 2202.5,2942.5C 2202.5,2943.5 2202.5,2944.5 2202.5,2945.5C 2190.17,2945.5 2177.83,2945.5 2165.5,2945.5C 2165.5,2944.5 2165.5,2943.5 2165.5,2942.5 Z"/></g>
<g><path style="opacity:0.978" fill="#3eb49f" d="M 1318.5,2943.5 C 1329.83,2943.5 1341.17,2943.5 1352.5,2943.5C 1351.89,2944.39 1351.56,2945.39 1351.5,2946.5C 1339.83,2946.5 1328.17,2946.5 1316.5,2946.5C 1316.93,2945.29 1317.6,2944.29 1318.5,2943.5 Z"/></g>
<g><path style="opacity:0.993" fill="#3eb49f" d="M 1375.5,2943.5 C 1419.17,2943.5 1462.83,2943.5 1506.5,2943.5C 1506.57,2945.03 1505.91,2946.03 1504.5,2946.5C 1461.5,2946.5 1418.5,2946.5 1375.5,2946.5C 1375.5,2945.5 1375.5,2944.5 1375.5,2943.5 Z"/></g>
<g><path style="opacity:0.974" fill="#3eb49f" d="M 1529.5,2943.5 C 1540.83,2943.5 1552.17,2943.5 1563.5,2943.5C 1564.72,2944.78 1564.38,2945.78 1562.5,2946.5C 1552.17,2946.5 1541.83,2946.5 1531.5,2946.5C 1530.6,2945.71 1529.93,2944.71 1529.5,2943.5 Z"/></g>
<g><path style="opacity:0.976" fill="#3ab4a1" d="M 1645.5,2945.5 C 1657.5,2945.5 1669.5,2945.5 1681.5,2945.5C 1681.45,2949.2 1681.11,2952.86 1680.5,2956.5C 1668.17,2956.5 1655.83,2956.5 1643.5,2956.5C 1643.98,2952.77 1644.65,2949.1 1645.5,2945.5 Z"/></g>
<g><path style="opacity:0.969" fill="#3ab4a1" d="M 1703.5,2945.5 C 1715.83,2945.5 1728.17,2945.5 1740.5,2945.5C 1740.5,2949.17 1740.5,2952.83 1740.5,2956.5C 1728.17,2956.5 1715.83,2956.5 1703.5,2956.5C 1703.5,2952.83 1703.5,2949.17 1703.5,2945.5 Z"/></g>
<g><path style="opacity:0.975" fill="#3ab4a1" d="M 1772.5,2945.5 C 1785.17,2945.5 1797.83,2945.5 1810.5,2945.5C 1812.07,2948.91 1813.07,2952.57 1813.5,2956.5C 1800.83,2956.5 1788.17,2956.5 1775.5,2956.5C 1774.96,2952.69 1773.96,2949.02 1772.5,2945.5 Z"/></g>
<g><path style="opacity:0.974" fill="#3ab4a1" d="M 1826.5,2945.5 C 1838.83,2945.5 1851.17,2945.5 1863.5,2945.5C 1862.35,2949.11 1861.35,2952.77 1860.5,2956.5C 1847.83,2956.5 1835.17,2956.5 1822.5,2956.5C 1823.46,2952.61 1824.8,2948.94 1826.5,2945.5 Z"/></g>
<g><path style="opacity:0.966" fill="#3ab4a1" d="M 1928.5,2945.5 C 1940.83,2945.5 1953.17,2945.5 1965.5,2945.5C 1965.5,2948.83 1965.5,2952.17 1965.5,2955.5C 1953.17,2955.5 1940.83,2955.5 1928.5,2955.5C 1928.5,2952.17 1928.5,2948.83 1928.5,2945.5 Z"/></g>
<g><path style="opacity:0.987" fill="#3ab4a1" d="M 2165.5,2945.5 C 2177.83,2945.5 2190.17,2945.5 2202.5,2945.5C 2202.5,2948.83 2202.5,2952.17 2202.5,2955.5C 2190.17,2955.5 2177.83,2955.5 2165.5,2955.5C 2165.5,2952.17 2165.5,2948.83 2165.5,2945.5 Z"/></g>
<g><path style="opacity:0.939" fill="#3ab4a0" d="M 1316.5,2946.5 C 1328.17,2946.5 1339.83,2946.5 1351.5,2946.5C 1350.2,2950.08 1348.54,2953.42 1346.5,2956.5C 1341.5,2956.5 1336.5,2956.5 1331.5,2956.5C 1325.3,2955.1 1319.3,2953.1 1313.5,2950.5C 1314.52,2949.1 1315.52,2947.77 1316.5,2946.5 Z"/></g>
<g><path style="opacity:0.989" fill="#3ab4a1" d="M 1375.5,2946.5 C 1418.5,2946.5 1461.5,2946.5 1504.5,2946.5C 1502.11,2951.23 1498.44,2954.56 1493.5,2956.5C 1457.17,2956.5 1420.83,2956.5 1384.5,2956.5C 1379.68,2954.88 1376.68,2951.55 1375.5,2946.5 Z"/></g>
<g><path style="opacity:0.915" fill="#3bb4a0" d="M 1531.5,2946.5 C 1541.83,2946.5 1552.17,2946.5 1562.5,2946.5C 1556.83,2950.34 1550.83,2953.67 1544.5,2956.5C 1541.83,2956.5 1539.17,2956.5 1536.5,2956.5C 1534.33,2953.48 1532.66,2950.15 1531.5,2946.5 Z"/></g>
<g><path style="opacity:0.886" fill="#3ab4a1" d="M 2145.5,2955.5 C 2090.83,2955.5 2036.17,2955.5 1981.5,2955.5C 1981.5,2953.17 1981.5,2950.83 1981.5,2948.5C 2033.83,2948.33 2086.17,2948.5 2138.5,2949C 2141.33,2950.67 2143.66,2952.83 2145.5,2955.5 Z"/></g>
<g><path style="opacity:0.934" fill="#35b3a3" d="M 1928.5,2955.5 C 1940.83,2955.5 1953.17,2955.5 1965.5,2955.5C 1965.5,2960.5 1965.5,2965.5 1965.5,2970.5C 1953.17,2970.5 1940.83,2970.5 1928.5,2970.5C 1928.5,2965.5 1928.5,2960.5 1928.5,2955.5 Z"/></g>
<g><path style="opacity:0.983" fill="#35b3a3" d="M 1981.5,2955.5 C 2036.17,2955.5 2090.83,2955.5 2145.5,2955.5C 2148.39,2957.2 2150.23,2959.54 2151,2962.5C 2136.92,2972.79 2122.75,2982.96 2108.5,2993C 2140.5,2993.5 2172.5,2993.67 2204.5,2993.5C 2204.5,3002.5 2204.5,3011.5 2204.5,3020.5C 2164.83,3020.5 2125.17,3020.5 2085.5,3020.5C 2085.68,3029.87 2085.18,3039.2 2084,3048.5C 2082.88,3053.24 2080.38,3057.07 2076.5,3060C 2071.47,3062.79 2066.13,3064.79 2060.5,3066C 2048.91,3067.92 2037.24,3069.08 2025.5,3069.5C 2024.72,3063.66 2023.22,3057.99 2021,3052.5C 2018.15,3045.47 2015.31,3038.47 2012.5,3031.5C 2021.84,3031.67 2031.17,3031.5 2040.5,3031C 2042.33,3030.73 2043.83,3029.89 2045,3028.5C 2045.57,3025.83 2046.07,3023.17 2046.5,3020.5C 2006.5,3020.5 1966.5,3020.5 1926.5,3020.5C 1926.5,3011.5 1926.5,3002.5 1926.5,2993.5C 1966.5,2993.5 2006.5,2993.5 2046.5,2993.5C 2046.5,2990.17 2046.5,2986.83 2046.5,2983.5C 2053.12,2984.93 2059.79,2985.76 2066.5,2986C 2070.5,2982.67 2074.5,2979.33 2078.5,2976C 2046.17,2975.5 2013.84,2975.33 1981.5,2975.5C 1981.5,2968.83 1981.5,2962.17 1981.5,2955.5 Z"/></g>
<g><path style="opacity:0.951" fill="#35b3a3" d="M 2165.5,2955.5 C 2177.83,2955.5 2190.17,2955.5 2202.5,2955.5C 2202.5,2960.17 2202.5,2964.83 2202.5,2969.5C 2190.17,2969.5 2177.83,2969.5 2165.5,2969.5C 2165.5,2964.83 2165.5,2960.17 2165.5,2955.5 Z"/></g>
<g><path style="opacity:0.819" fill="#37b3a3" d="M 1331.5,2956.5 C 1336.5,2956.5 1341.5,2956.5 1346.5,2956.5C 1346.26,2958.64 1345.26,2960.31 1343.5,2961.5C 1339.24,2960.2 1335.24,2958.53 1331.5,2956.5 Z"/></g>
<g><path style="opacity:0.971" fill="#35b3a3" d="M 1384.5,2956.5 C 1420.83,2956.5 1457.17,2956.5 1493.5,2956.5C 1488.21,2958.84 1482.54,2960.01 1476.5,2960C 1451.5,2960.33 1426.5,2960.67 1401.5,2961C 1407.71,2961.48 1413.71,2962.81 1419.5,2965C 1420.93,2967.27 1420.6,2969.27 1418.5,2971C 1454.5,2971.33 1490.5,2971.67 1526.5,2972C 1529.98,2975.57 1533.64,2978.9 1537.5,2982C 1525.91,2998.26 1512.25,3012.59 1496.5,3025C 1522.08,3028.04 1547.74,3029.87 1573.5,3030.5C 1568.08,3041.5 1563.08,3052.67 1558.5,3064C 1522.31,3063.26 1486.81,3057.76 1452,3047.5C 1417.46,3059.44 1381.96,3065.78 1345.5,3066.5C 1340.26,3055.68 1334.26,3045.34 1327.5,3035.5C 1344.48,3034.15 1361.48,3032.99 1378.5,3032C 1389.27,3030.98 1399.94,3029.32 1410.5,3027C 1401.08,3020.92 1392.91,3013.42 1386,3004.5C 1375.52,3013.14 1364.35,3020.81 1352.5,3027.5C 1342.14,3019.99 1331.47,3012.99 1320.5,3006.5C 1345.26,2994.9 1367.09,2979.24 1386,2959.5C 1386.24,2958.21 1385.74,2957.21 1384.5,2956.5 Z M 1421.5,2997.5 C 1439.66,2996.34 1458,2996.17 1476.5,2997C 1469.04,3004.14 1460.54,3009.64 1451,3013.5C 1440.29,3009.57 1430.46,3004.23 1421.5,2997.5 Z"/></g>
<g><path style="opacity:0.662" fill="#37b3a3" d="M 1536.5,2956.5 C 1539.17,2956.5 1541.83,2956.5 1544.5,2956.5C 1542.57,2957.81 1540.57,2959.14 1538.5,2960.5C 1537.29,2959.42 1536.63,2958.09 1536.5,2956.5 Z"/></g>
<g><path style="opacity:0.971" fill="#35b3a3" d="M 1643.5,2956.5 C 1655.83,2956.5 1668.17,2956.5 1680.5,2956.5C 1677.62,2986.7 1669.45,3015.37 1656,3042.5C 1650.58,3051.01 1644.91,3059.34 1639,3067.5C 1627.92,3059.38 1616.75,3051.38 1605.5,3043.5C 1626.67,3018.36 1639.34,2989.36 1643.5,2956.5 Z"/></g>
<g><path style="opacity:0.972" fill="#35b3a3" d="M 1703.5,2956.5 C 1715.83,2956.5 1728.17,2956.5 1740.5,2956.5C 1739.35,2982.89 1737.35,3009.22 1734.5,3035.5C 1728.83,3050.99 1717.83,3060.82 1701.5,3065C 1694.61,3066.88 1687.61,3068.05 1680.5,3068.5C 1679.32,3063.1 1677.82,3057.76 1676,3052.5C 1672.81,3044.8 1669.65,3037.13 1666.5,3029.5C 1676.28,3030.48 1685.61,3028.98 1694.5,3025C 1699.63,3019.96 1701.79,3013.79 1701,3006.5C 1702.23,2989.85 1703.07,2973.18 1703.5,2956.5 Z"/></g>
<g><path style="opacity:0.973" fill="#35b3a3" d="M 1775.5,2956.5 C 1788.17,2956.5 1800.83,2956.5 1813.5,2956.5C 1814.81,2959.41 1816.15,2962.41 1817.5,2965.5C 1819.46,2962.57 1821.13,2959.57 1822.5,2956.5C 1835.17,2956.5 1847.83,2956.5 1860.5,2956.5C 1856.39,2972.33 1850.06,2987.16 1841.5,3001C 1857.72,3014.62 1875.72,3025.45 1895.5,3033.5C 1885.81,3044.69 1876.31,3056.02 1867,3067.5C 1848.95,3057.28 1832.45,3044.95 1817.5,3030.5C 1801.27,3046.72 1782.61,3059.39 1761.5,3068.5C 1759.62,3068.12 1758.12,3067.12 1757,3065.5C 1749.64,3055.32 1742.14,3045.32 1734.5,3035.5C 1757,3028.26 1776.66,3016.42 1793.5,3000C 1786.03,2986.09 1780.03,2971.59 1775.5,2956.5 Z"/></g>
</svg>
